<svg xmlns="http://www.w3.org/2000/svg" width="524.41" height="372.047"><path fill="#fff" d="M280.786 19.776c-.003-1.799 1.554-3.402 3.277-3.726 1.04-.206 2.432.498 2.229 1.717-.197 1.668-.287 3.41.367 5 .197.554.707 1.113.016 1.483-.222.261-.553.476-.707.764-.242.785.746.61 1.24.796 1.228.304 2.75.047 3.421-1.141.747-1.176 1.044-2.89 2.492-3.43 1.368-.366 2.45.772 3.47 1.484 1.762 1.467 3.785 2.563 5.65 3.882 1.158.773 1.424 2.239 1.449 3.533.049.947.047 1.896.049 2.845-1.004.31-2.266.701-2.537 1.868-.295.685-.008 1.924-1.107 1.561-.98-.084-1.957.282-2.584 1.05-.438.569-.768.854-.747.011l-.478-3.343-5.159.573.573 2.294-2.293 2.751c-2.005-.215-4.193-.83-6.084.182-1.199.472-1.203 2.126-.172 2.771 1.652 1.236 3.827 1.036 5.76 1.388 1.424.135 2.523 1.097 3.552 1.994.72.571 1.646.77 2.468 1.156 1.184.53 2.479.86 3.504 1.691 1.143.915 2.551 1.65 4.062 1.445.648-.074 1.562-.356 1.027.519-.389 1.229-1.031 2.54-.549 3.834.52.978 1.818.836 2.75.792 2.533-.219 5.279-.727 7.637.529.604.264.846.533.082.541l-2.826.471c.572 1.146 1.146 2.294 1.721 3.44 1.604-1.101 3.104-2.52 3.906-4.321.455-.927.146-2.225-.893-2.587-1.143-.315-2.377-.338-3.438-.931-.361-.246-1.865-.791-.805-.884l1.801-.45c-.996-.998-2.328-1.893-3.811-1.623-.83.01-1.822.506-2.545.376l-1.098-2.192c2.109-.838 4.354-1.935 6.68-1.465 1.943.443 3.258 2.119 4.213 3.758h1.146l1.146-3.439c2.094.044 4.111-.778 5.73-2.072 1.137-.854 2.236-1.759 3.441-2.514l1.721 1.72.572-1.146c.357-.037.693-.023.895.319.299.262.555.632.883.827.461.098.609-.061.416-.498-.156-.79-.314-1.579-.473-2.368h3.439c-.273 1.331-.117 2.896 1.002 3.813 1.549 1.297 3.367 2.301 4.625 3.92.818 1.05 1.803 2.193 3.236 2.278 1.062.095 2.117-.118 3.176-.175v2.201c-1.816-.128-3.729.326-5.078 1.605-.648.562-1.229 1.198-1.801 1.834l2.293 1.721c1.496-1.153 2.922-2.556 4.84-2.957 1.377-.424 2.854-.587 4.264-.217 1.506.235 2.842-.692 4.082-1.413.299 1.755.113 3.727 1.295 5.204.84.692-.033 1.79.145 2.709-.078 1.532 1.287 2.486 2.336 3.36.461.228-.031.731-.066 1.103.008.239-.471.83-.102.81h1.551l-.572-1.72 6.781 2.545 3.537-2.545-1.146-2.293 5.158-1.72c.297 1.706.018 3.562.84 5.144.623 1.11 2.029 1.28 3.174 1.162l1.721 2.866 1.719-1.146.574 1.72c1.266-1.205 1.957-2.83 2.957-4.23 1.318-1.69 3.227-2.769 5.068-3.795l-.574-1.72-1.719.573 1.146-2.293c-1.107-.264-1.439-1.418-.791-2.312.514-.612-.125-.661-.598-.788l-3.197-.914 3.439-2.293c1.348 1.591 3.24 2.85 3.807 4.966.354.607.139.917-.506.945l-1.582.396c.715 1.279 1.506 2.787 3.066 3.131.523.355 1.955-.012 2.021.522l-1.074 3.226c-1.057-.849-2.223-1.768-3.658-1.704-.518.08-1.93-.354-1.248.489l.893 1.788-.572 2.293 2.293-1.72 1.719 1.72 4.588-.573c-.383 2.102-.766 4.204-1.146 6.306l1.719 2.293c-1.852-.589-3.314-1.9-4.822-3.063-1.252-.954-2.934-1.442-4.469-.935-2.412.62-4.994.051-7.164-1.087-.674-.312-1.652-.722-2.273-.117-.49.327-.438.985.041 1.316.943.62 2.139.439 3.209.446.26 1.01 1.014 2.013 2.148 2.029 1.779.074 3.604-.127 5.328.446.689.165 1.408.35 1.098 1.226-.02 1.443.67 2.731 1.191 4.031.434 1.149-.824 1.884-1.686 2.293-1.221.274.051 1.655.344 2.38.57.754 1.615.749 2.469.78.488 1.83.699 3.896-.32 5.595-.9 1.639-2.816 2.837-2.826 4.872-.131.986.865 2.494 1.85 1.469 1.041-1.196 1.178-2.891 1.303-4.406.051-.61-.172-1.283.383-1.709l1.904-2.381 2.293-.573c1.539.642 3.115 1.514 3.879 3.075.189.521 1.248 1.902.055 1.362-1.025-.091-1.848-.81-2.09-1.809-.043-.57-.701-.256-1.084-.336h-1.332c.582.613 1.232 1.174 1.773 1.818l2.812 5.061 2.865-1.72c.779 1.946 1.828 3.87 3.412 5.278.576.545 1.613.821 2.176.104.549-.3.441-1.8 1.154-1.107l5.297 3.179c-.367-1.585-.982-3.232-.445-4.856.209-.723.322-1.951 1.191-1.014 1.166.665 1.875 1.887 2.105 3.186.379.677.096 2.452 1.25 2.033.977-.149 2.227-.091 2.73.92.285.573 1.104 1.834-.107 1.353-1.354-.128-2.754-.481-4.096-.129-1.055.474-.646 1.849-.594 2.753.293.673-.186 1.939.625 2.207 1.789.716 3.576 1.432 5.365 2.146.047 1.06.312 2.466 1.518 2.754 1.041.214 2.082-.158 3.068-.461.699.596 1.734 1.388 2.645.712.68-.213 1.039-1.618 1.773-1.083l6.475 3.237h-5.732c1.363 1.688 2.771 3.343 4.105 5.053l1.947 2.796 4.84 1.324-1.721 5.732c1.211.377 2.223 1.236 2.799 2.363.334.559.988 1.258-.027 1.188l-2.771.462c-.371-1.334-.648-3.009-2.068-3.626-.381-.125-2.053-.699-1.789-.15l5.543 8.414.809 5.005c1.922 1.482 3.844 2.966 5.768 4.448l.91 5.4c.83-.785 2.029-1.665 1.771-2.963.061-.914-1.256-2.223.053-2.607 1.156-.798 2.65-1.289 4.014-.719 1.674.594 3.416 2.117 3.221 4.051-.273 1.776-1.27 3.343-1.605 5.104l4.014.573c-.695-1.421-1.299-3.097-.627-4.647.521-1.404 1.941-2.543 3.494-2.317 2.133.279 4.129 1.268 6.305 1.312-.383 1.12-.766 2.24-1.146 3.359-2.551-.837-5.123-2.191-7.889-1.741.131.788 1.246 1.938 1.926 2.735 1.906 2.046 4.463 3.354 7.109 4.165-.006 1.027.205 2.271 1.258 2.73 1.371.601 2.568 1.518 3.578 2.618 1.375 1.479 2.805 2.982 3.703 4.812-.312.629-1.598 1.103-1.574 2.128-.012.778.162 1.778-.602 2.273l-5.791 2.636c-.406-.368-.768-.845-1.203-1.146-1.094-.215.193.947.42 1.336 1.434 1.627 3.586 2.461 4.838 4.277.693.913 1.229 1.935 1.678 2.986l-1.719-.573c.191 1.91.383 3.821.572 5.732l-6.879-5.732-1.146 1.72v-3.439c-1.154.392-2.492.355-3.5 1.102-.783.75-.895 1.901-1.086 2.911l-2.293-.573c-.344 1.539-.41 3.413.854 4.569 1.354 1.211 3.094 2.058 3.998 3.711.312.57.9 1.614.762 1.997-1.037-.208-1.879-.84-2.672-1.499-1.564-1.125-3.184-2.418-5.146-2.701-1.057-.184-1.814.833-1.811 1.805-.133.585.279 1.382-.482 1.581l-2.381 1.429v-4.145c.859-.647 1.088-2.366-.385-2.238-1.598.009-3.254.534-4.473 1.587-.641.58-.674 1.484-.445 2.261.062.306-.402 1.096-.721.613-.982-.621-1.85-1.579-1.887-2.799-.18-.534.221-2.171-.656-1.218-1.234.836-1.705 2.438-1.355 3.85.418 2.098 1.568 3.98 1.896 6.102h-2.293l-.574 1.72v-4.586l-5.16-.573c.383-.955.766-1.911 1.146-2.866-1.143-.863-2.123-2.24-3.674-2.314-1.258-.059-2.518.036-3.777.021.34-1.24.863-2.559 2.055-3.209.395-.418 1.912-.632.984-1.203l-1.893-1.894.572-2.866-2.865-1.147-1.721 2.294 2.867 4.586c-1.459-.44-2.564-1.638-4.049-2-1.223-.163-1.787 1.2-2.115 2.139.006.727-.605.219-1 .148-.271-.001-1.016-.564-.82-.013.279 1.666.328 3.609-.967 4.89-.332.58-1.318.766-1.367 1.424v5.45l-2.295-4.013c.982-1.092 1.264-2.828.377-4.062-1.064-1.589-3.172-2.604-5.051-1.928-2.436.8-4.316 2.634-6.217 4.27l4.012 1.72-2.293 3.439-2.293-2.293 1.721 6.307c-1.514.46-3.162 1.249-4.748.665-1.582-.554-1.738-2.578-3.184-3.315-.645-.6-2.012-.427-2.389-1.016v-2.067c-1.318.352-2.492 1.128-3.826 1.405-1.293.016-2.264-1.018-3.264-1.697-.529-.656-.35.262-.422.62l-.514 7.698-1.719-2.866-6.879-.573c-.094-1.121.033-2.409-.713-3.339-.869-.766-2.129-.353-3.137-.144-.334.132-.01.72-.053 1.053l.463 4.149c-1.15-.326-2.275-.986-2.766-2.129-.236-.61-1.01-1.278-.293-1.802l3.631-4.669c-2.459.797-5.24 1.338-7.002 3.404-.699.57-1.139 1.955-1.727 2.219l-3.883-3.33c-.299.94-.768 1.946-1.855 2.134-.648.002-.389.642-.438 1.063v1.963c1.568.215 3.209.933 3.922 2.439.834 1.734 1.553 3.584 2.941 4.969.852.903 1.84 1.667 2.881 2.337.383-.955.766-1.911 1.146-2.866.857.765 1.945 1.71 1.695 2.991-.268.598-.141 2.091-.822 2.1l-2.02-.505-.572 2.866 2.865-1.72c1.125 1.57 2.186 3.467 4.17 4.047 1.092.377 2.201.704 3.283 1.112l-1.719 4.587-1.146-.573-.574 4.013-2.293-4.586h-3.439c-.26-1.771-.783-3.636-2.221-4.824-.521-.408-1.457-1.402-1.771-1.318.219 1.691.527 3.45-.092 5.101-.318.497-.121 1.727-.898 1.615-.287-.067-.855.198-.797-.278-.244-1.301-.4-2.621-.699-3.908l-.975-3.267h4.014l-2.293-1.72c-.006-1.404-.451-2.945-1.742-3.69-.432-.113-1.705-1.32-1.697-.557v2.527c-.768-1.052-.934-2.363-1.385-3.55-.738-1.409-2.141-2.31-3.457-3.123-1.127-.686-2.422.065-3.271.847-1.16.989-1.893 2.776-1.014 4.179.293.833 1.398 1.169 1.674 1.873-.072.281.146.818-.111.935l-4.475.56 2.293 2.866-1.721 1.72c-1.201-.57-2.379-1.402-3.756-1.417-1.09.06-1.998 1.034-1.92 2.136.051 1.618.818 3.122 1.703 4.441l.533-1.72c.848.566 1.693 1.356 1.643 2.465.1.602.197 1.212-.506.762l-5.723-2.08-2.293 2.866c.938 2.224 2.338 4.37 4.496 5.568.969.645 2.201.698 3.164 1.334.789.709.826 1.861.939 2.843l4.586.573c-.955 1.338-1.91 2.676-2.867 4.013l-.572-2.293-5.16 2.293-.572-1.72-2.293 2.866c1.414.601 3.074 1.078 3.855 2.53.34.685 1.193 1.642 0 1.881-2.152 1.248-3.619 3.317-5.496 4.896-.748.662-1.924.941-2.77.288-.797-.546-1.369-1.347-1.896-2.142-1.783.553-3.568 1.283-5.457 1.329-1.143-.127-2.279-.419-3.438-.264-.74.195-.984.079-.549-.525.664-1.326 1.328-2.653 1.99-3.979 1.529.764 3.059 1.528 4.586 2.293-.252-1.877-.611-3.92-2.1-5.248-.549-.642-1.465-1.107-1.885-1.741l1.119-4.477c3.615 1.94 7.232 3.878 10.893 5.732-.029-1.513-.641-2.942-.68-4.449-.172-.839.754-1.958.477-2.497-1.541-.57-3.203-.511-4.789-.84-1.363-.355-1.682-1.913-1.887-3.105.822-.077 2.139-.41 1.955-1.486-.27-.99-1.266-2.105-2.012-2.428-.936 1.687-1.873 3.374-2.811 5.061l-2.293-1.146-1.721 4.013-1.719-.573-3.445 6.931.578 1.669c.797-1.349 1.801-2.939 3.529-3.058.596.048 2.037-.168 2.133.405l-1.076 3.226c-.91.244-2.213.526-2.229 1.71-.047.625.09 1.317-.67 1.459l-5.127 2.563.574-3.439-5.732 1.146.572-2.866-4.014-1.147.574 2.294-3.439.573 2.865 3.439-.572 2.866c-1.277-1.803-2.439-3.969-4.592-4.845-1.457-.559-3.057-.465-4.58-.314l4.012 4.586-2.293-.573c-.557 1.462-1.092 3.013-.785 4.598-.105.396.584 2.062-.117 1.489l-1.391-.928c-1.256.275-2.676.238-3.705-.631-.42-.12-1.648-1.656-1.391-.642l.51 3.565-5.158 1.72c-.207-1.119-.484-2.616-1.768-2.95-1.121-.23-2.265.039-3.393.084v6.88c2.062-.636 4.175-1.388 6.363-1.275 1.047.018 1.797.821 2.281 1.663.725 1.039 1.76 1.81 2.82 2.479-.023.393.047.817-.033 1.191l-1.686 2.248c-.988.006-2.34-.062-2.807 1.014-.203.754-.729 1.876-.477 2.488l2.709 1.084-1.146-2.293 1.721-1.72c1.68 1.044 2.889 2.662 3.799 4.392.119.54 1.133 1.183.508 1.62-.205.401-.555.235-.893.123l-3.414-.976.572 2.293-5.158-1.146-.574 2.866-2.293-1.146c.514-1.333 1.129-2.796.604-4.227.031-.648-.934-1.812-.336-2.168l1.452-.484v-1.146h-3.439c.104.879.22 2.16-.772 2.574-1.51.386-3.028-.419-4.559-.19-.775.036-2.254.285-2.613-.176l2.785-5.074 2.293.573 1.146-3.439c-.262-.148-.447-.726-.777-.477-.908.412-1.802.89-2.719 1.262h-7.299l-3.537-1.932c-.049 1.334-.096 2.808-1.072 3.841-.418.598-.783.953-.6.069.176-2.45.351-4.9.525-7.351-1.058.627-2.315 1.477-3.573.901-1.229-.48-1.695-1.958-2.904-2.433-1.089-.029-1.575 1.215-2.065 1.998-.237.221-.725-.03-1.066-.005l-4.149-.461 3.44-2.293-.574-4.587h-1.719l.572 1.72-3.439.573c-.567-.972-1.5-2.162-2.769-1.957-1.33.415-1.826 1.917-2.002 3.166-.566 3.9-.342 7.852-.389 11.778.009 4.326-.019 8.653.014 12.979.563 6.841 1.154 13.684 1.7 20.524-.993 9.382-1.967 18.766-2.971 28.146-.506 3.084-1.045 6.164-1.531 9.251-.156 2.049.047 4.312-1.25 6.06-1.687 2.192-4.797 2.855-7.398 2.248-1.445-.312-2.852-1.27-3.212-2.778-.654-2.428.125-4.877.578-7.264 1.016-4.932 2.004-9.87 3.038-14.798 1.488-6.321 2.719-12.744 2.989-19.246.096-2.047-.204-4.082-.323-6.122-.178-2.014-.292-4.031-.344-6.052-.146-4.182-.327-8.363-.452-12.544.181-2.541.419-5.08.564-7.622-.014-4.278.031-8.557-.029-12.834-.116-1.792-.215-3.772-1.384-5.234-.923-1.104-2.509-.869-3.75-.588-1.239.302-2.739.312-3.661-.712-.86-.844-1.274-2.335-2.647-2.483-.966-.124-1.914.172-2.861.31l-.573 6.919-2.866 1.146c-.382-2.675-.765-5.35-1.146-8.025-1.594.587-3.252 1.398-4.994.979-.562-.252-1.793-.023-1.886-.688.07-.31-.152-.766.136-.966l2.157-1.618c-1.22.405-2.66.679-3.391 1.863-.345.603-.605 1.267-1.297.714l-3.338-1.431c-1.58-1.589-3.429-2.907-5.37-4.02-.866-.56-1.938-.721-2.904-.314-1.742.679-3.592 1.169-5.478 1.033-1.059-.054-2.067-.443-3.102-.656l-7.223-1.775 2.293-4.013-6.879 1.72v2.293c-1.531.159-3.271.436-4.196 1.817-.598.558-.761 2.237-1.701 1.166-.955-.584-1.758-1.616-1.557-2.796-.015-.768.565-1.94.468-2.442l-6.2 2.255v1.146l2.293.573-1.146 2.866-.573-1.72-7.453.573.573-2.866-4.586.573 2.866-1.146-2.293-5.159-2.293 2.866-3.44-.573v-2.866l2.293-1.721c-1.288.722-2.844 1.312-3.571 2.685-.425 1.003.568 1.817 1.339 2.26 1.011.6 2.246 1.167 2.57 2.414.303.957.222 1.973.235 2.961l-6.879-1.72.573-2.293c-2.102-.383-4.204-.765-6.306-1.146-.396 1.427-1.222 2.787-2.569 3.489-.62.217-1.637 1.17-2.06.901-.381-1.564-.221-3.268.643-4.65.529-.867.859-2.251-.096-2.954-1.385-.896-3.145-.745-4.721-.696-1.278.082-2.546.264-3.809.471-.093-1.038-.205-2.349.766-3.033.424-.564 1.68-.585 1.527-1.432-.037-.313.167-.83-.334-.751l-3.105-.518c-.958-1.515-2.229-2.917-3.839-3.747-1.059-.704-2.537.149-2.311 1.44.03 1.053.268 2.297-.604 3.1-.667.695-1.579 1.062-2.418 1.5l.344-3.915c-.366-1.497-1.497-2.774-2.839-3.494-1.561-.81-3.197.602-4.791.022-.984-.319-1.77-1.04-2.46-1.785-1.025.685-2.317 1.357-3.573.975-1.031-.479-.74-1.837-.44-2.694l-.573-2.293-4.013 1.146 1.146 2.293c-1.742.618-3.51 1.47-5.412 1.222-.824-.129-2.06.117-2.595-.229.163-1.413.365-3.127-.831-4.172-.566-.475-1.535-1.259-2.054-1.294v2.754c-1.93-.377-4.144-.415-5.569-1.972-.423-.377-.627-1.087-1.301-.895-.382-.049-.716-.036-.691.438l-1.037 4.148c-1.009.492-2.152 1.075-2.478 2.248-.229.608-.677 1.457.286 1.124l5.059-.506c-1.025 1.242-2.306 2.337-3.895 2.755-2.654.922-4.286 3.361-5.973 5.454-1.434 1.836-3.269 3.753-5.746 3.9-.714.167-1.953-.496-1.621.729-.148 1.07.565 2.318 1.798 2.023 1.705-.178 3.389-.654 5.118-.53-.64 1.541-1.499 3.215-1.095 4.926.454 1.348 1.59 2.33 2.089 3.664.242.668.763 1.777.616 2.274l-2.184-.546c-.607.94-1.377 1.971-2.584 2.095-.585.041-1.771.553-1.289-.407l1.58-6.847-2.293.573c-1.286-1.21-2.721-2.612-4.597-2.668-.851-.004-1.654.396-2.282.948l-3.79-3.13c-1.26.444-2.505.944-3.774 1.354l-3.901.63v-2.293l-2.867.573.574-2.866-1.72 2.293c-.211-1.211-.115-2.455.32-3.605.66-2.277.875-4.859 2.538-6.686 1.39-1.433 3.579-1.253 5.364-.842.531.124 1.226.463.79-.355-.389-1.41-.643-3.158.529-4.283.519-.646 1.429-.987 1.925-1.54v-1.033l-2.866-1.146c2.879-1.892 5.757-3.786 8.599-5.732.029 1.345-.055 3.087 1.258 3.888.951.604 2.149-.251 2.211-1.29.401-1.063-1.03-2.184-.267-3.026 1.085-1.388 2.055-3.206 3.958-3.524.695-.113 1.877-.316 1.204.714-.437 1.708-1.04 3.526-.591 5.292.283 1.181 1.656 2.106 2.817 1.508 1.081-.546 1.538-1.895 1.223-3.027-.171-1.129-.083-2.277.087-3.4h-1.582v-3.439l-3.439.573v-1.146c-1.218.991-2.175 2.39-3.681 2.969-1.31.247-2.226-.947-3.07-1.751-.702-.816-1.925-1.387-2.922-.743-.792.389-1.287 1.131-1.792 1.818.975.24 1.98.736 2.137 1.845.469.659-.356.4-.748.448h-1.389l-.573 2.867-2.293-2.294c.074 1.451.259 3.168-.911 4.262-.508.458-1.542 1.351-1.925 1.339.355-1.494.497-3.146-.292-4.535-.548-1.353.276-2.728.835-3.932l4.586.573c-.465-1.913-.36-4.168-1.942-5.593-.375-.344-1.172-1.086-.813-.159l.462 2.312c-1.153-.932-1.256-2.639-.595-3.888.737-1.512 1.985-2.768 3.461-3.564l1.72 3.439c1.615-.883 3.306-2.207 5.262-1.732.619-.019 2.065 1.121 1.362-.046-.493-1.396-1.599-2.762-3.178-2.872-1.227-.212-2.594-.142-3.646-.902-.84-.848-.036-2.307.894-2.718 1.612-.648 3.462-.114 4.899.731 1.691 1.191 2.587 3.326 2.384 5.372-.12 1.861-.529 3.777.048 5.606 1.439-.821 3.171-1.334 4.211-2.704.755-1.044-.418-1.93-1.058-2.627-.402-.58-1.412-1.813-.091-1.619 1.633-.192 2.69-1.642 3.232-3.073.023-.428.979-1.513.246-1.441h-1.381c.364-1.285.96-2.524 1.946-3.448.734-1.041.45-2.404.428-3.597-.122-.611-.176-1.163.576-1.146l1.635-.409-.573-1.72c.268-.167.432-.677.795-.529l2.645.529c-1.449-2.065-3.608-3.492-5.9-4.471-.402-.388-1.91-.365-1.351-1.093l2.664-5.328c-.289-.227-.48-.691-.912-.573-.364.044-.826-.149-1.047.239-1.153 1.175-2.357 2.306-3.478 3.508l-3.162 4.278-3.439-2.293.573-2.293c-1.415-.38-3.119-.389-4.102-1.651-.496-1.182-1.797-.166-2.688.001-1.138.221-1.506 1.47-.75 2.324.917 1.506 1.507 3.282 1.233 5.059-2.175-.034-4.533.06-6.465-1.099-1.323-.784-1.598-2.512-1.2-3.891.188-.526.318-.941-.423-.68-3.381.373-6.909.215-10.063-1.171-.712-.279-1.497-.99-1.795.096-.454.896-1.452 1.494-2.452 1.147-.922.009-.182-.45.106-.775l1.654-1.654c-1.619-.581-3.23-1.438-5.007-1.247-.398-.062-2.119.259-1.62-.025l2.041-1.021-1.146-4.11h4.873c1.013-.125 1.745-1.632.701-2.226-.953-.462-1.993.169-2.992.112-1.621.117-3.403-.164-4.557-1.416-.554-.597-1.2-1.43-1.411-2.12 2.848-.76 5.696-1.52 8.544-2.278l-.573 3.439 1.146-3.439 3.439-.573-.573-4.013c2.237.876 3.895 2.764 4.945 4.876.657 1.234 1.241 2.507 1.935 3.723-1 .508-2.247 1.106-2.53 2.295-.037.997 1.06 1.575 1.895 1.789 1.354.209 2.723-.014 4.075-.123l.573-2.241h4.013c.579.855 1.457 1.832 2.604 1.346.682-.027.985-.245.533-.806l-.843-1.687c1.249-.377 2.591-.528 3.749-1.152 1.14-.786.095-2.334-1.056-2.325-2.149-.164-4.125 1.239-6.292.913-1.481-.179-2.605-1.337-3.281-2.595.734-.833 1.334-1.798 2.196-2.508.8-.706 2.05-.947 2.521-1.976.24-.811-.184-2.142-1.218-1.985-.908.004-1.294 1.268-2.055 1.254l-2.589-.518c-.259 1.097-1.442 1.667-2.406 1.013-.768-.202-1.248-.543-.994-1.396.101-1.038-.496-2.118-1.611-2.233-1.202-.271-2.304-.956-3.015-1.971l-2.293 1.146-2.293-1.146 1.72-.573-.573-2.293c1.795-.598 3.412-1.589 5.091-2.435.94-.441 2.008-.212 2.934.142.442-1.229.729-2.655 1.863-3.452.969-.472 1.724.625 2.224 1.293 1.359 1.885 2.321 4.173 4.3 5.52.781.506 2.181.775 2.737-.176.308-.964-.812-1.592-1.367-2.093l.562-2.812 5.16.573v4.013h-2.293v4.013c1.829-.445 3.568-1.173 5.27-1.967 1.79-.695 3.754-.424 5.623-.326l1.146-4.013-2.293-.573c.023-.584-.046-1.199.034-1.765l1.686-2.248 5.159 1.72 1.146-4.013.573 1.146c-.344.337-.912.738.018.713.897.296 1.975.289 2.625-.497.438-.521.857-1.004 1.434-.425l3.375 1.929c-1.42-.005-3.014-.062-4.207.825-.915.856.188 1.992.963 2.461.825.555 1.741.957 2.67 1.3v-3.439l1.72-1.72 5.16 2.866c.164-.267.687-.434.519-.792l-.519-2.074c1.843.403 3.745.951 5.122 2.321.353.154 1.342 1.608 1.119.729-.196-1.243-.442-2.487-.607-3.73l.672-3.905 2.293-2.866-4.586-.573.573 1.72-2.293-.573c.515-1.964.817-4.19 2.483-5.562.438-.343.932-1.03 1.424-.428.581.479 1.516.789 2.155.271.442-.586-.004-1.252-.387-1.724-.452-.67-.973-1.302-1.381-1.996-.157-.475-.576-1.98.193-1.065 1.25 1.021 2.569 2.362 4.321 2.234 1.119-.099 2.263-.413 3.368-.028 2.276.692 4.309 2.31 5.412 4.428.042.621.608.371 1.028.375l7.754-.518c1.285 2.576 4.093 3.857 6.753 4.518.935.174 2.245.65 2.973.528-.302-1.674-.712-3.688-2.408-4.503-1.322-.602-2.603-1.349-3.553-2.472-.876-1.09-2.251-1.635-3.629-1.625-.719-.215-2.083.37-2.42-.113.1-1.766-.262-3.775-1.774-4.89-1.36-1.045-3.004-1.61-4.541-2.335l.573-4.013-3.44.573-.573-2.866-3.439 3.439-5.733-.573v-2.293c-1.63.767-3.208 1.651-4.915 2.242l-3.11 1.197c-1.028-2.236-2.431-4.438-4.586-5.732l3.439 7.452c-1.898-.631-3.894-1.809-4.483-3.852-.414-1.352-.31-2.796-.103-4.174l-4.013 2.866-1.869-.379-5.056 3.417-1.674 3.841 6.879 2.293c.22-1.177.7-2.628 1.985-2.984 1.2-.188 2.063.919 2.601 1.838l-4.586 1.146 2.293 1.72-.573 2.293c.869-.383 1.868-1.231 2.841-.657.739.437 1.085 1.727 1.953.775 1.066-.604 2.387-1.359 3.598-.689.625.439 1.894 1.217 1.749 1.879-.917.79-1.885 1.725-1.968 3.012-.131.69.125 1.748-.901 1.373-1.57-.073-3.446.008-4.491 1.373-.974 1.24-1.734 2.64-2.78 3.827-1.109-2.223-1.104-4.92-2.739-6.885-.705-1.006-1.778-1.88-3.073-1.813-1.536.024-3.071.282-4.608.092-1.066-.061-1.934.733-2.818 1.136l-3.386-1.129c-.112-1.29-.377-2.913.723-3.873 1.258-.832 2.84-.824 4.252-1.24.365-.11-.137-.683-.164-1.001l-1.946-5.351c1.821.105 3.859-.351 4.985-1.908 1.026-1.343 1.627-2.942 2.467-4.397-1.794-.647-3.719-1.609-5.66-.965-.77.15-1.846.833-2.33.857l1.684-5.053-4.013 2.293c1.1-2.335 2.351-4.921 4.833-6.041 1.732-.785 3.634-1.053 5.486-1.411l-2.293 7.452 4.013-2.293c-.236-1.205.223-2.53 1.292-3.187 1.083-.749 2.561-1.314 2.885-2.744.359-1.365-.645-2.57-1.353-3.632-.468-.528-.678-.915.139-.659 1.515.209 3.03.458 4.545.642 3.421-.438 6.842-.875 10.263-1.312l.573-1.72c1.345.235 2.954.299 3.973-.781.715-.765 1.833-1.271 2.857-.826 1.736.531 3.465 1.148 5.053 2.035.709.417.482 1.771 1.509 1.039 2.627-.898 5.374-2.148 8.212-1.559 1.654.354 2.966 1.886 4.766 1.604 1.1-.182 2.424-.533 2.989-1.588.375-1.155-1.699-1.302-1.696-1.816.845-1.126 1.985-2.084 3.391-2.383 1.651-.514 3.578-.988 4.551-2.557.678-1.196.31-2.664-.405-3.755l-.803-1.453 4.013-2.293 4.185 4.644c1.271.572 2.674.072 3.891-.398 1.518-.625 2.086-2.332 2.172-3.846.095-.576.195-1.206-.601-.91-1.395.062-2.849.385-4.212-.039-1.333-.471-2.316-1.738-2.373-3.158-.147-1.931.502-3.827.301-5.761.017-.874.26-1.945.762-2.589l3.328-.555v-1.146l-4.013-1.146-.573-2.293c-.964.582-2.298 1.182-2.327 2.493-.151.661.336 1.503-.366 1.919-.553.376-1.372-.386-2.033-.418-1.43-.476-3.084-.553-4.393.297-.724.489-1.341 1.184-2.181.458-1.566-.735-3.389-1.694-3.834-3.516-.32-1.862.844-3.529 1.783-5.031l1.271-1.895-5.693 5.692c.371-.047.702-.029.775.404.041.211.602.885.159.666-1.058-.33-2.121-.958-3.26-.724-1.182.376-1.312 1.906-.701 2.826.747 1.374 1.897 2.485 2.564 3.911.695 1.45 1.533 2.826 2.534 4.088.457.339-.114.756-.233 1.139l-3.558 6.607h-1.146l-.573-3.439h-2.293c.53-2.03 1.439-4.25 3.455-5.203.412-.354 1.625-.331 1.576-.669-1.303-1.315-3.02-2.594-4.974-2.428-1.24.08-2.021 1.159-2.405 2.229-.498 1.403-1.367 2.634-1.981 3.979-.312.869-.523 1.781-.899 2.622l-2.225 4.056-5.16-2.293c.491-1.236 1.331-2.291 1.874-3.495.286-.992-.339-1.938-.727-2.811l2.293-1.146c-.292-1.297-.562-2.956.578-3.94 1.039-.817 2.097-1.921 2.023-3.343.003-.83-.187-1.644-.297-2.463l2.855.573-1.72 2.293 6.306-1.72 2.866-10.892c3.744.361 7.487.723 11.23 1.083l1.381-1.656-5.732-1.72c.559-1 1.427-1.938 2.626-2.077.618-.182 1.548.053 1.583-.806l1.523-4.57h-5.159l-1.72-2.293c.784-1.247 2.195-2.296 3.744-1.974 1.799.246 3.19 1.693 4.996 1.874 1.248-.012 1.713-1.414 1.962-2.42.061-.693.185-1.12.741-.526l3.461 2.473v-4.013l2.866.573-.573-3.439c.843.551 1.781 1.477 1.393 2.578-.371 1.1-.824 2.388-.103 3.454.126.548 1.619 1.554.444 1.5l-3.454.493v1.146l6.306.573-.573 2.867c1.303.08 2.862.013 3.768 1.142.357.451 1.287 1.386.197 1.151h-2.818v1.146c1.323.519 2.75 1.424 4.203.827.749-.089 1.61-.942 2.262-.668.635.333.221.843-.046 1.313-.42.879-1.123 1.758-2.169 1.835-.537.291-2.493-.296-1.629.66.653 1.003 1.651 2.216 2.995 1.922 1.673-.475 2.904-1.892 4.606-2.318.643-.107 2.118-.529 2.352.091l-.536 3.217c-.768.657-1.778 1.347-1.896 2.433.234 1.057 1.686.852 2.475.651 2.346-.598 3.81-3.067 6.317-3.216 1.177-.133 2.362.349 3.119 1.259.636.902 1.854.852 2.696.292.952-.492-.049-.021-.201-.475l-.472-.944 1.72-.573c-.448-1.253-1.202-2.533-.855-3.913.131-.528.158-1.748.724-.789 1.147 1.162 1.813 2.792 1.628 4.434-.056.861-.208 1.712-.35 2.562 1.256-.629 2.224-1.667 3.376-2.443 1.072-.602 2.309-.79 3.503-.996.55 1.042 1.396 2.256 2.725 2.193 1.191-.065 2.415-.273 3.581.1l-1.72 1.72c1.844-.284 3.953-.962 4.809-2.78.391-.714.349-1.7.406-2.368l5.677 1.136 2.867 2.866-1.146-2.293c.415-1.233-.065-2.537-.878-3.488-.428-.656-1.317-1.643-1.302-2.244h2.753l2.293 2.293v-3.451c.286-1.63 1.584-2.881 3.102-3.422 1.672-.685 3.558-1.034 4.924-2.3-.939-.215-2.15-.343-2.513-1.41-.196-.571-.343-1.131-.821-.474l-4.119 3.604c-1.288-1.495-2.522-3.16-4.298-4.104-.819-.631-1.625.515-2.127.546l-1.6-1.601c.763-.939 1.779-1.893 1.728-3.209-.014-.577.224-1.844-.488-.983l-5.825 4.766v-6.306c-1.354.202-2.722.351-4.068.586l-3.384 1.134c.858-2.108 2.357-3.995 4.418-5.027 1.395-.722 2.914-1.537 3.544-3.072.18-.717 1.062-2.029.224-2.379-1.071-.424-2.306-1.45-1.948-2.741.473-1.252 1.917-.265 2.143.643.021.745.634.472 1.116.438 1.42-.157 2.841-.315 4.261-.474l.573-4.013 2.293.573v2.293l2.293-.573 1.72 2.293c.023-.947.109-2.25-1.006-2.616-.534-.145-.925-.309-.237-.632 1.094-.726 2.418.037 3.192.876 1.134 1.176 1.974 2.607 2.636 4.093 2.033-.562 4.29-.715 6.228.256 1.538.716 3.037 1.532 4.664 2.037l-2.866-2.866c.838-1.496 2.237-2.649 3.891-3.126.986-.327 1.999-.571 2.989-.888l-.573 2.293c1.732.594 3.542 1.37 5.411 1.106 1.509-.29 2.118-1.876 2.823-3.048.43-.449.679-1.948 1.422-1.207l2.382 1.429c-.139 1.717-.094 3.678-1.423 4.977-.748.504-1.047.953-.106 1.426 1.054.898 2.521 1.203 3.849.83.964-.269 2.137-.359 2.883.448.311.327 1.204 1.313.939 1.451l-4.422-1.105c-.137 1.347.105 3.072 1.495 3.69 1.197.555 2.73.286 3.556-.777 1.099-1.196 1.712-3.033 3.401-3.542 1.128-.391 2.167.403 2.879 1.199 1.362 1.491 2.917 2.926 4.915 3.473 1.969.716 4.083.557 6.128.384.952-.055 1.913-.021 2.851.159l-1.146-2.293c1.309-.572 2.742-.917 3.926-1.737.967-.918-.129-2.081-1.152-2.226-1.084-.353-2.226-.453-3.348-.623 1.634-1.104 3.593-2.099 5.623-1.675 1.224.217 2.387.676 3.55 1.102l-1.72-2.293h2.293v-1.721h-5.159l-.573-4.013 6.947-4.167c1.57-.336 2.873.963 3.645 2.173.712 1.128 1.256 2.388 1.447 3.714l4.586-2.293c-1.014-1.445-2.43-2.721-2.875-4.48l-.006-.134zm3.462-.551v-1.146l-1.146-.573c-.425 1.054.185 1.475 1.146 1.719zm-11.465 0l-2.866 1.146c.46-.905 1.343-1.613 2.402-1.21l.464.064zm3.439 6.306l-.572 3.44c.928-.481 1.957-1.135 2.082-2.276.154-.63.432-1.403-.467-1.164h-1.043zm4.586 2.867l.574 2.293c-2.103-.383-4.205-.765-6.307-1.146-.41 1.215-1.035 2.414-1.037 3.718.209.936 1.23 1.351 1.72 2.127.623.741.911 2.117 2.052 1.3 1.979-.802 3.924-2.225 4.631-4.319.242-.907.082-1.862.127-2.792v-1.18l-1.76-.001zm10.319.573c-.097.871-.162 2.118.772 2.55 1.02.191 1.66-.909 1.995-1.715.278-.46-.558-.303-.843-.45l-1.924-.385zm-65.352 4.586l-1.146-2.293c-.563.966-.141 2.071 1.012 2.237l.134.056zm3.439.573v-1.146l-1.146-.573c-.424 1.054.185 1.474 1.146 1.719zm-34.396 1.147l4.013.573c-.499-.776-1.167-1.954-2.269-1.713-.683.186-1.223.686-1.744 1.14zm28.091 1.146l.573 1.72 1.72-2.293-2.293.573zm8.025 1.147l2.293.573c-.384-.936-1.344-1.462-2.167-.646l-.126.073zm16.052.573c.574.81 1.393 1.779 2.515 1.495.541-.189 2.016-.1 1.16-.9-.433-.896-1.457-1.498-2.422-1.048-.426.13-.839.294-1.253.453zm34.969-1.147l-.572 1.72 1.719-1.72h-1.147zm-72.805.574l-.573 1.72 1.72-1.72h-1.147zm59.047 1.146v1.72h3.439c-.466-.868-1.115-1.964-2.273-1.795-.39.006-.778.044-1.166.075zm-59.706 4.901c.763-1.704-1.643-3.601-3.119-2.481-.971.868-.594 2.317-.346 3.422.372.578-.313.571-.692.732-.27.134-.749.164-.898.358l.556 1.667c1.577-.979 3.248-1.963 4.379-3.468l.067-.117.053-.113zm41.934-3.181c.322 1.146.924 2.327 2.091 2.799.562.209 1.659 1.116 1.313-.041-.023-.974-.601-1.929-1.563-2.217-.597-.233-1.224-.374-1.841-.541zm95.162 1.72l-2.865 3.439v-2.293l-4.586 1.146-.574-2.293c.955.383 1.91.765 2.867 1.146.564-.841 1.246-2.024 2.426-1.872.932.148 1.809.534 2.732.727zm-112.933 0l1.146 2.866.573-2.293-1.719-.573zm2.293 0l1.72 1.72-1.72-1.72zm5.733 2.866l2.293-.573-.574-1.72-1.719 2.293zm33.249 2.867h1.146l.574-4.014c-.898.303-2.098.81-2.086 1.935-.007.708.205 1.396.366 2.079zm-21.211-3.441l-.573 1.72 1.72-1.72h-1.147zm12.039 1.72c1.309-.074 2.705.112 3.728 1.008.548.276 1.704 1.456 2.005 1.06v-3.214c-1.574-.163-3.373-.782-4.797.23-.36.252-.666.571-.936.916zm-17.633-.234c-.753.583-1.484 1.725-.843 2.637.746.861 1.912-.024 2.259-.837.493-.825.54-1.795.739-2.712-.755.213-1.553.369-2.155.912zm80.12.234c.027.39-.057.825.039 1.187.33.452.707.674 1.213.263.92-.131 1.578-1.43 1.504-2l-2.756.55zm4.011-.573l1.146 1.721.574-1.721h-1.72zm-70.511 2.867l3.439.573c.227-.29.691-.48.574-.912.062-.562.043-1.061-.711-.969-.889-.245-1.985-.289-2.636.486-.248.251-.463.533-.666.822zm71.658 1.147l-.572-2.293c-.868.982-.457 1.7.572 2.293zm-102.614-1.147v3.439h1.146c.225-.935.605-2.167-.378-2.822-.246-.217-.507-.418-.768-.617zm55.606 4.013l2.867-1.72-1.146-1.146-1.721 2.866zm48.729-.573l-1.146-2.293c-.396.953.092 1.868 1.033 2.219l.113.074zm-13.186 0c.297 1.427.365 2.979 1.152 4.242.727.991 2.164 1.233 3.213.611 1.078-.561 1.941-1.496 2.514-2.561l-2.293-.573c.049-.955-.4-2.133-1.49-2.217-1.053-.123-2.092.234-3.096.498zm-24.077 3.439c.987-.251 2.214-1.248 1.411-2.323-.309-.471-.963-1.626-.939-.504l-.472 2.827zm-89.43-2.293v1.146l3.439.573c-.273-.948-.87-2.217-2.076-1.957-.459.045-.911.145-1.363.238zm-76.818 0l-2.866 2.293c-.227-.289-.691-.48-.573-.912.084-.273-.206-.863.223-.845l3.216-.536zm14.538 2.425c-.382-1.216-1.817-1.885-2.991-1.374-1.357.5-2.312 1.709-2.948 2.962l5.159 3.439c.546-1.584 1.345-3.341.78-5.027zm184.959-1.852c-.227.289-.689.48-.572.912.045.363-.148.826.24 1.047.205.34.533.379.898.334.357.035.699.025.9-.319.361-.196.236-.594.254-.932.096-.384-.111-.643-.4-.868-.227-.329-.682-.111-1.02-.174h-.3zm-62.733 2.413l-.899 1.6c2.342.259 4.69 1.173 7.061.679 1.081-.202 1.772-1.285 1.681-2.352-.041-.533.07-1.474-.699-1.102l-7.144 1.175zm31.778-.12l3.439 1.72c-.467-.869-1.092-2.021-2.268-1.834-.392.015-.783.066-1.171.114zm34.394 0v2.866h1.721v-2.866h-1.721zm-26.369 3.44l1.146-2.866-1.146 2.866zm-89.43-.573v-1.146l-1.146-.573c-.425 1.053.184 1.473 1.146 1.719zm100.323.573l-.574-2.293c-.729.771-.596 1.832.455 2.21l.119.083zm30.383-1.147c.586.993 1.676 1.771 2.875 1.558.639-.173 2.105-.145 2.15-.591-.666-1.009-1.932-1.348-3.074-1.147-.651.065-1.299.156-1.951.18zm53.886 5.159l-3.439-1.72 2.293-2.866-1.146-1.72c1.002.567 1.594 1.64 1.652 2.775.146 1.189.324 2.375.64 3.531zm-146.183-4.585c.244.975.793 1.913 1.859 2.12.839.47-.074-1.328-.551-1.55-.412-.239-.87-.387-1.308-.57zm-45.288 4.012h1.72l-.573-2.866-1.147 2.866zm-73.952-.573l4.013 2.866-1.146 2.866c1.638-.266 3.25-.738 4.909-.848 1.194.125 2.262.771 3.428 1.034.442.006 1.678.807 1.311-.054l-1.048-4.719-7.453.573c-.015-1.055-.015-2.45-1.063-3.031-1.127-.376-2.184.619-2.951 1.313zm174.847-1.72c.184.1.637.845.572.348.125-.533-.234-.298-.572-.348zm3.44 0l1.721 3.439c.697-.45 1.893-1.137 1.486-2.131-.715-.962-2.098-1.131-3.207-1.308zm-110.068 1.147c.24.975.736 1.98 1.844 2.137.863.459-.025-1.212-.379-1.518-.436-.309-.972-.432-1.465-.619zm76.245 1.719c.936-.082 1.98-.37 2.178-1.447.297-.559-.425.188-.653.304l-1.525 1.143zm18.918-1.719l-.574 5.732c1.277-.64 2.533-1.68 2.703-3.191.053-.785.301-1.927.051-2.541h-2.18zm53.313 0l-.572 1.72h2.865v-1.146l-2.293-.574zm-13.758.573v1.72h1.721v-1.72h-1.721zm44.715-.573l-3.439 4.013 1.721-4.013h1.718zm-50.447 1.146l1.146 2.293.574-2.293h-1.72zm-59.621.573v1.72h1.72v-1.72h-1.72zm-149.623 3.44l2.867-2.293c-.912-.138-2.376-.656-2.842.489-.173.584-.094 1.209-.025 1.804zm29.237-1.147v-1.146l-1.146-.573c-.425 1.054.185 1.475 1.146 1.719zm76.245 1.147c-1.889.03-3.929 1.059-4.504 2.968-.291.891-.275 1.856-.082 2.766l4.586-4.587 1.72 1.721.573-5.16-2.293 2.292zm76.244-.573l2.293-1.72-2.293 1.72zm-35.542 1.146c.94-.298 1.946-.768 2.134-1.854.439-.846-1.32.114-1.584.55-.249.404-.384.864-.55 1.304zm95.163-2.866c-.186.1-.637.845-.574.348-.125-.534.234-.298.574-.348zm-170.674 1.817c-.893.503-1.644 1.657-1.08 2.661.513 1.056 2.165 1.667 3.016.658.712-.879.484-2.04.325-3.062-.133-.296.089-1.096-.414-.868-.638.119-1.298.239-1.847.611zm117.36-.671c-.033 1.131.197 2.442 1.256 3.066.475.189 1.451 1.178 1.641.695.152-1.021.059-2.311-.965-2.858-.606-.375-1.28-.621-1.932-.903zm-24.078.574v1.72h2.293v-1.72h-2.293zm28.091 1.146l2.293 2.294c.188-.897.285-2.515-1.066-2.39-.412-.006-.82.044-1.227.096zm-98.029 0l2.293 1.721-2.293-1.721zm-85.991 2.294l-1.72-1.721c-.507 1.132.598 1.752 1.593 1.697l.127.024zm174.846-1.146l2.867-.574-2.867.574zm-188.604-.575l.573 1.721-1.72-1.721h1.147zm241.347 2.294c1.256.73 2.846 1.523 4.268.766.533-.343 2.162-1.432.779-1.604-1.172-.496-2.561-.619-3.695.048-.47.234-.913.509-1.352.79zm-225.869-1.146l1.72 2.293v-2.293h-1.72zm132.999.573v1.72l2.293-1.146-2.293-.574zm25.223.573c.248.792.962 2.418 1.992 1.589.274-.342 1.162-1.475.648-1.589h-2.64zm9.172-.573v1.72h1.721v-1.72h-1.721zm26.943 1.72v-1.146l-1.146-.573c-.424 1.053.185 1.474 1.146 1.719zm37.836-.573l2.293-1.146-2.293 1.146zm-98.028 1.146c-.095.989.136 2.409 1.45 2.264.731.13.982.016.363-.45l-1.813-1.814zm-90.611 3.898c1.402.004 1.516-1.908.361-2.42-.739-.623-2.162.508-1.639 1.42.232.5.708.958 1.278 1zm-48.693-.458c-.952-.193-2.302-.22-2.644-1.343-.117-.467-.507-2.055.176-1.124l2.468 2.467zm104.386.062c-.205-1.266-1.452-2.225-2.73-2.022-.899.062-2.207.786-1.766 1.853.694 1.063 2.044 1.334 3.214 1.562l1.282.265c.066-.554.209-1.112 0-1.658zm58.422-1.209l3.44 2.866-1.147-3.439-2.293.573zm5.733-.573c.27 1.669.846 3.315 1.969 4.609.588.644 1.135 1.208.457 1.99-.49 1.136.572 2.102 1.549 2.454.486.066 1.615.959 1.758.466v-2.067h2.865l-.572 2.293c1.256-.365 2.832-.948 3.033-2.434-.043-.731.324-2.341-.793-2.211-1.193-.097-2.352-.841-2.691-2.026-.111-1.146-1.076-2.165-2.254-1.57-.881.09-1.945 1.387-2.355.08-.641-1.062-1.858-1.304-2.966-1.584zm30.383 0c.5 1.007 1.137 2.081 2.279 2.438.594.247 1.248.659 1.639-.051.211-.259.039-.675.094-.997.104-.423-.506-.307-.76-.461l-3.252-.929zm48.729.573l1.719 1.72-1.719-1.72zm-21.786 1.147c-.352.329-.801.639-.35 1.134.162.996 1.291 1.591 2.059 1.677l-.562-2.811h-1.147zm-201.217 4.012v1.146l4.013-1.146-1.146-3.439c-.438 1.069-.565 2.513-1.791 3.007-.346.172-.71.307-1.076.432zm94.016-3.439c.561 1.523 1.319 3.106 2.807 3.922.415.211 1.587 1.081.954.159l-2.041-4.081h-1.72zm89.43 0l-.572 1.72 1.719-1.72h-1.147zm-171.98.573l-1.146 4.013c1.146-.362 2.199-1.197 2.471-2.416.032-.564.874-1.846-.169-1.597h-1.156zm159.369 1.72l4.012 1.72c-.018-1.154-.32-2.644-1.551-3.063-1.024-.246-1.891.605-2.461 1.343zm-213.257.573v5.159c1.933-.775 3.042-2.7 3.998-4.439.419-.797.795-1.617 1.162-2.439l-5.16 1.719zm229.882 1.72l-2.867-1.72c-.119 1.053-.084 2.254.77 3.016.355.463 1.426 1.088.361 1.193l-1.131.377.574 2.293c-1.086.283-2.365.598-2.869 1.728-.457.678-.807 1.428.332 1.232 1.93.13 3.559-1.091 4.945-2.277.732-.429 1.445-1.731 2.279-.851.904.677 1.914-.007 2.764-.405v2.293h4.586c-.291-.938-.793-2.075-1.93-2.143-.547-.207-1.836.21-1.398-.704l.463-2.312-3.439-1.146 1.146-4.013c-1.199.088-2.705-.075-3.504 1.02-.504.732-.762 1.597-1.082 2.419zm-173.128-2.867l-.573 4.586h3.439c.092-1.188.374-2.715-.749-3.519-.641-.467-1.394-.751-2.117-1.067zm206.95.574v1.72l2.293-1.146-2.293-.574zm-224.721.573c.244.974.793 1.913 1.859 2.12.425.398.785-.148 1.007-.457v-1.09l-2.866-.573zm228.735.573l6.879 8.025 1.719-4.586-2.865-.573v-2.293l-5.733-.573zm-115.228 3.44c1.204-.15 2.739-.186 3.391-1.41.255-.557 1.114-1.771-.073-1.464-.996-.041-2.142.25-2.607 1.228-.299.519-.505 1.085-.711 1.646zm92.296-1.147c1.275-.036 2.721.034 3.715-.921.359-.339 1.363-.979.281-.853-1.203-.152-2.545.068-3.373 1.036-.225.231-.43.481-.623.738zm-196.058-1.72c-.227.289-.691.48-.573.912.044.364-.149.826.24 1.047.205.34.534.38.898.334.359.035.7.026.901-.319.361-.196.236-.594.254-.932.096-.384-.111-.643-.399-.868-.228-.329-.682-.111-1.021-.174h-.3zm121.533 0v1.72h1.721v-1.72h-1.721zm-99.748 1.147l-.573 2.293c.29.227.48.691.912.573.276-.083.857.205.852-.222l.529-2.645-1.72.001zm54.46.573l-4.013-.573c-.218 1.118.05 2.663 1.303 3.025 1.294.243 2.185-1.04 2.581-2.096l.065-.175.064-.181zm137.01 0c.064.966.014 2.244 1.15 2.609 1.166.288-.338 1.437-.562 2.132-1.125 1.854-2.902 3.146-4.6 4.432.229-1.187.527-2.365.715-3.555.029-1.31-.549-2.813-1.9-3.237-1.85-.605-3.801-.052-5.693-.088v-2.293c-1.689.928-3.189 2.195-4.971 2.953-1.4.379-2.566-.697-3.637-1.419-.996-.725-2.301-.267-3.123.493-.693.35.289.444.574.644l3.129 1.342c-.793 1.087-1.766 2.263-1.709 3.686.191 1.26 1.65 1.631 2.725 1.721 1.711.142 3.137-1.325 4.85-1.023 1.266.312 2.064 1.461 2.734 2.497-.994.558-2.018 1.455-1.92 2.703-.035 1.385 1.309 2.226 2.477 2.602 1.67.58 3.443.713 5.176 1.001-1.4 1.511-3.059 3.284-2.818 5.513.068.914.531 2.084 1.613 2.062 1.014-.02 1.967-.414 2.926-.696v-2.866l3.439 1.72c-1.752 1.135-3.504 2.271-5.258 3.405-.838 1.034-.203 2.42.402 3.399.785 1.427 2.211 2.272 3.574 3.063 1.219.724 2.041 1.971 2.428 3.317l3.439 1.72-.572 2.866 6.879-1.146-1.721 5.159 4.014.573-.574-2.866 4.014-2.293c.264.939 1.314 1.671 2.232 1.07.795-.656 2.428-1.097 2.322-2.254-.061-1.188.031-2.61 1.137-3.324.643-.579 1.801-.798 2.299-1.332l-1.111-3.332c2.084.445 4.453.688 6.35-.477 1.381-.86 1.586-2.704 1.146-4.144-.281-.478-.234-1.812-.945-1.604l-1.965.491-2.867-4.013 1.721-1.146-1.721.573c-.566-1.018-1.189-2.178-2.4-2.517-.664-.329-1.256-.504-.965.381l1.072 10.735c-.121-.95-.135-2.05-.824-2.789-1.053-.575-1.975.664-2.723 1.249-1.553 1.427-3.004 3.118-5.051 3.833l-1.721-5.733-2.293.573c.205-1.281.857-2.49.834-3.802.098-.937-1.436-.957-1.338-1.631l.504-2.02h-4.586l1.721-3.439c-.85-1.032-1.305-2.382-1.07-3.717.115-1.052.121-2.12-.076-3.162l-4.588-.573 3.441-6.88-1.721-1.72-4.014.574zm-42.994 0l1.719 1.72-1.719-1.72zm-76.818 4.586c1.082-.3 2.254-.732 2.801-1.797.269-.498 1.073-1.336-.033-1.102-.874-.073-1.897.23-2.21 1.14-.25.564-.393 1.167-.558 1.759zm82.551 0l-1.719-3.439c-.48.747-.938 1.952-.062 2.605.519.411 1.163.62 1.781.834zm-137.012-2.866l-1.72 5.159c1.341-.382 2.89-1.074 3.187-2.596.119-.786.383-1.939.14-2.563h-1.607zm116.947 2.866v1.72l2.867.573 2.293-4.586c-1.127-.264-2.492-.386-3.354.552-.607.575-1.167 1.2-1.806 1.741zm-101.468-2.293l-1.146 2.866c.29.227.48.691.912.573.286-.08.832.198.879-.214l1.075-3.226-1.72.001zm88.283 0c-.146.855-.463 2.016.311 2.657.967.427 1.973-.265 2.801-.727.699-.249-.215-.416-.479-.614l-2.633-1.316zm4.585 0c-.227.29-.689.48-.572.912.086.26-.209.897.227.808h2.639l-2.294-1.72zm-138.73.573c.521.957 1.286 2.101 2.522 2.031.605-.199 2.13.167 2.064-.706-.067-.285.2-.865-.28-.787-1.435-.178-2.87-.358-4.306-.538zm176.566-.573c-.184.1-.635.845-.572.348-.125-.533.235-.298.572-.348zm-138.157 6.307c1.511-.343 3.264-.757 4.052-2.247.323-.566.899-1.483-.188-1.197-1.181.045-2.594-.241-3.539.638-.632.779-.452 1.889-.325 2.806zm75.671-2.867c.72.728 1.893 1.469 2.774.525.642-.387.768-.624-.011-.525h-2.763zm107.775 3.44c1.055-.214 2.246-.455 2.848-1.454.352-.456.916-1.043-.068-.967-.885-.237-2.133-.156-2.408.908-.184.488-.278 1.002-.372 1.513zm-133.004-.373c-.8-.768-2.052-1.602-3.155-.911-1.559 1.074-2.118 3.11-3.719 4.15v4.013c.29.227.48.69.912.573.534.047 1.048.067 1.019-.657.612-1.872 1.294-4.031 3.17-5.004.809-.563 2.292-.487 2.851-.766-.296-.511-.625-1.009-1.078-1.398zm3.445-1.921v2.294h1.719v-2.294h-1.719zm47.581 0l1.721 1.721-1.721-1.721zm21.785 1.721v3.439l2.293-.573.574-4.014-2.867 1.148zm-40.702 5.732c1.443-.975 3.249-1.976 3.548-3.865.07-.737.186-2.029-.268-2.384-1.525.521-3.204 1.496-3.443 3.253-.168.996-.02 2.014.163 2.996zm26.944-2.866l2.293-2.293c-.898-.189-2.516-.287-2.389 1.065-.007.412.044.821.096 1.228zm-161.089-2.293c-.351.329-.801.639-.35 1.133.163.997 1.291 1.592 2.059 1.678l-.562-2.811h-1.147zm93.443 2.293l1.72-1.72-1.72 1.72zm-40.702 0l-.573 1.72 1.72-1.72h-1.147zm-62.486 4.586c.973.127 2.422.158 2.615-1.106.184-.632.445-1.557-.278-.764l-2.337 1.87zm16.624-.573l1.72-1.72-1.72 1.72zm66.499-1.147l-1.146 2.866 2.293-2.866h-1.147zm100.323 0l1.719 1.72-1.719-1.72zm29.236 2.293h1.721l-.574-2.293-1.147 2.293zm-134.718 2.293c.848-.301 2.082-.775 1.968-1.879-.087-.585-.592-2.025-.868-1.971l-1.1 3.85zm109.493-4.013l1.721 2.293v-2.293h-1.721zm-175.419 3.44c.389-.028.825.056 1.186-.04.166-.257.721-.451.407-.786l-1.02-2.04-.573 2.866zm47.581-2.866c.114 1.003-.007 2.331 1.035 2.894.51.26 1.559.93 1.156-.066l-.471-2.827-1.72-.001zm206.95 0l-2.865 1.72c.447-.81 1.037-1.761 2.105-1.669l.76-.051zm-146.756 5.388c.688.911 2.052.922 2.89.221.798-.616 1.568-1.56 1.474-2.626-.447-1.088-1.85-.458-2.649-.141l-2.287 1.17c.126.482.216.999.572 1.376zm113.508-4.242c-.186.099-.637.844-.574.348-.126-.534.234-.299.574-.348zm-285.489 1.147l-1.72 2.866-2.293-2.866h4.013zm131.852 3.439l2.866-2.293c-.929-.178-2.356-.269-2.577.948-.132.44-.207.894-.289 1.345zm-141.597-2.293l-2.867 2.293 2.867-2.293zm166.247 3.44c.895-.287 2.179-.562 2.229-1.727.102-.662.165-1.503-.359-.61l-1.87 2.337zm-128.985-1.72l2.867.573-2.293-1.146-.574.573zm44.142 1.72c.995.096 2.351-.219 2.257-1.485.147-.735.005-.92-.443-.328l-1.814 1.813zm81.977-.574l2.293-1.72-2.293 1.72zm129.56-2.293l1.719 3.439-1.719 2.293-2.295-.573 1.721-3.439-2.293.573c.412-.93 1.029-1.89 2.115-2.074l.752-.219zm-147.905 1.147c.189 1.076.229 2.454 1.358 3.005.52.329 1.157.647.833-.178l-.471-2.827h-1.72zm102.616 2.293h2.293c-.291 1.014.844 2.646 1.66 1.285.424-.981-.24-1.995-.678-2.854-.203-.743-.539-.774-.982-.265l-2.293 1.834zm21.211-2.293l2.293 2.866-.574-2.866h-1.719zm-120.96 1.72l2.293.573c-.384-.936-1.344-1.462-2.167-.646l-.126.073zm-135.865-.574l.573 3.439h1.72l1.72-2.866-4.013-.573zm51.595.574l-.573 2.293 2.293.573v-2.866h-1.72zm215.548 2.293l1.721-1.72-1.721 1.72zm-64.205 2.293l3.439 2.866 1.146-5.732c-1.191-.189-2.623-.096-3.375.988-.462.586-.822 1.244-1.21 1.878zm47.008-3.44c.363 1.646.621 3.595 2.184 4.563.641.439 1.609.921 1.137-.258-.166-1.496-.732-3.136-2.193-3.824-.361-.195-.742-.35-1.128-.481zm-215.55 1.147l.573 1.72h-4.013l4.586 2.866v-2.866l4.013.573c-.845-1.013-1.854-2.1-3.262-2.181-.628-.076-1.263-.088-1.897-.112zm54.461 1.146l1.72 1.72-1.72-1.72zm152.489 1.147l2.867-.573-2.867.573zm-252.811-.574c-.184.1-.636.845-.573.348-.125-.533.234-.298.573-.348zm328.483 4.587l1.146-3.44c-.844.327-2.289.615-2.18 1.79.153.645.614 1.159 1.034 1.65zm-323.324 1.72c1.255-.748 2.531-1.691 2.986-3.149.239-.683.841-1.857-.325-1.229-1.167.315-2.588.877-2.786 2.237-.123.712-.016 1.44.125 2.141zm154.783 0l2.293-2.293 2.293.573.573-2.294c-1.526.259-3.268.169-4.511 1.234-.736.717-.769 1.828-.648 2.78zm90.004-2.293l2.865-1.147-2.865 1.147zm-188.033 1.72v-2.867c-.862.191-1.946.368-2.4 1.219-.128 1.093 1.281 1.379 2.104 1.591l.145.029.151.028zm41.848-2.867l-.573 1.721 2.293-1.147-1.72-.574zm2.294 2.293c.975-.24 1.98-.736 2.137-1.845.399-.828-.211-.05-.483.19l-1.654 1.655zm24.65-2.293l-.573 1.721c.957.132 2.027-.168 2.139-1.289.461-.645-.37-.379-.749-.432h-.817zm4.013 0l-.573 1.721 1.72-1.721h-1.147zm164.529-.574c.314.971.91 2.137.166 3.07-.355.552-.842 1.309-.955.3l-.932-2.797 1.721-.573zm21.21 4.014l2.293.573c-.383.764-.766 1.528-1.146 2.293 1.166.038 2.545.209 3.488-.617.688-.896.006-2.027-.447-2.867-.572-.979-1.248-1.891-1.895-2.822-.93.481-1.959 1.135-2.084 2.276-.082.386-.144.775-.209 1.164zm-219.562 1.72l.573-4.586c-1.31.161-2.758.306-3.796 1.202-.872.844.171 1.929.957 2.347.708.439 1.482.76 2.266 1.037zm228.16-3.44c.58.911 1.289 1.892 2.443 2.059.654.273 1.184.327 1.117-.49l.453-2.715-4.013 1.146zm17.199 2.293l-.574-3.439.574 3.439zm-317.017 0v1.146l2.293.573 1.72-3.439-4.013 1.72zm188.605.573l-.574-2.293c-.729.771-.596 1.832.455 2.21l.119.083zm121.533-.573v-1.146l-1.146-.573c-.426 1.053.184 1.474 1.146 1.719zm-254.531-1.146l-.573 3.439h1.72v-3.439h-1.147zm24.077 2.866c1.042.152 2.368.238 3.039-.756.254-.529 1.601-1.769.322-1.604-.916-.13-1.965.091-2.475.938-.33.45-.601.941-.886 1.422zm227.015-.573l-.574-2.293c-.627.775-.535 1.811.461 2.21l.113.083zm-233.321.573h3.44l-.573-2.293-2.867 2.293zm212.682 1.146c.885-.471 2.041-.956 2.164-2.097.025-.517.451-1.749-.43-1.134-.973.263-1.662 1.132-1.641 2.146l-.093 1.085zm-90.576-2.293l-.574 2.293c-1.223.137-2.781.253-3.432 1.477-.504 1.419.184 2.892.566 4.256 1.645-.508 3.551-.945 4.6-2.437.932-1.55.445-3.45.104-5.104.074-.662-.535-.461-.965-.485h-.299zm94.59 3.44c.697-.691 1.479-1.65.865-2.661-.154-.569-.338-1.007-.65-.255-.691.78-.51 1.833-.252 2.746l.037.17zm-248.226-2.866v2.293l-2.293.573.573 1.72h-4.013c-.398 1.619-1.24 3.39-.478 5.029.575 1.462 2.228 1.984 3.669 2.026 1.627.069 3.255.283 4.883.21 1.616-.132 3.072-.903 4.537-1.533v-4.013l-6.879 1.146 2.293-1.72-.573-2.293 1.72-.573c-.492-1.01-1.076-2.151-2.249-2.478-.39-.146-.79-.266-1.19-.387zm42.422.573l1.72 2.866.573-3.439-2.293.573zm192.618 2.293c-1.766.694-3.586 1.506-5.533 1.276-.5-.129-1.615.181-1.283-.635l.51-4.081c1.711.043 3.736-.084 4.973 1.34.56.616.964 1.357 1.333 2.1zm-259.117 1.72c1.375-.268 2.888-.681 3.67-1.955.308-.582 1.515-1.776.155-1.545-1.233-.123-2.438.565-2.966 1.684-.331.582-.591 1.202-.859 1.816zm281.475-4.013l1.719 1.72-1.719-1.72zm-315.871.573c-.117.839-.202 2.574 1.04 2.374.548-.291 1.462-1.478 1.034-1.855l-2.074-.519zm8.599.573c.028.389-.056.825.04 1.187.272.222.459.65.872.533.28-.083.847.202.862-.22l.519-2.073-2.293.573zm120.959 0c.571.81 1.407 1.733 2.516 1.453.486-.168 2.045-.104 1.073-.713-.635-.705-1.568-1.205-2.533-.941-.353.056-.705.129-1.056.201zm105.379 1.772c1.244-.272.738-1.827-.367-1.823-.998.524-.986 1.964.367 1.823zm25.326 1.668c.416 1.198 1.312 2.592 2.75 2.489 1.676-.205 2.947-1.553 3.855-2.88.648-.951.76-2.156.441-3.246-.098-.809-1.189.397-1.65.594-.928.633-1.447 1.644-2.131 2.496-.856.83-2.188.611-3.265.547zm-245.358-2.866v1.146c.95.131 2.269.215 2.569-.966.384-.614.305-.881-.367-.621l-2.202.441zm49.301-.574l-.573 1.72c.957.133 2.027-.168 2.139-1.288.461-.646-.37-.38-.749-.432h-.817zm266.569 0c.295.979.752 2.05 1.809 2.399.492.186 1.332.832 1.035-.148.057-.976-.584-1.919-1.594-2.017-.414-.097-.832-.162-1.25-.234zm-217.841 2.867c.974.147 2.269.339 2.826-.711.233-.431 1.022-1.211.051-1.076-1.011-.252-2.09.157-2.506 1.152l-.371.635zm22.931 1.719v-2.866l1.72-1.146c-1.01.271-2.319.505-2.755 1.586-.219.926.486 1.758 1.035 2.426zm79.684-3.439c-.227.289-.691.48-.572.912-.072.574-.027 1.061.729.989.879.275 1.99.338 2.617-.468.428-.432.955-1.02.053-.963l-2.827-.47zm45.289 0l1.719 1.72-1.719-1.72zm-189.18.573v1.72h1.72v-1.72h-1.72zm203.51 0v1.72h1.721v-1.72h-1.721zm28.092 3.44c-.383-.955-.766-1.911-1.146-2.866l1.146 2.866zm12.611 1.719l-.574-2.293 1.721-2.293c-1.375.269-3.008.665-3.744 1.983-.51 1.053.541 2 1.467 2.297.364.141.745.238 1.13.306zm-288.504-.923c-.643.799-.516 2.007.243 2.683 1.629 1.521 3.873 2.109 5.977 2.654 1.125.607 1.311-.964 1.868-1.634.505-.862 1.056-1.907.57-2.904-.539-1.298-1.161-2.562-1.629-3.889-2.281.925-4.625 1.731-6.795 2.9l-.105.071-.129.119zm102.765-2.516l-.573 2.293 1.72.573v-2.866h-1.147zm168.54 2.293l2.293-.573-.572-1.72-1.721 2.293zm-261.983-1.72v1.72l2.293-1.146-2.293-.574zm49.301 5.733c-.224-1.6-.428-3.347-1.641-4.541-.487-.392-1.333-1.819-1.493-.522-.492 1.236-.12 2.712.929 3.544.664.602 1.438 1.063 2.205 1.519zm27.517-3.44c1.348.099 2.947.625 4.09-.377.259-.225 1.578-1.659.649-1.175l-2.447.979-.573-1.72-1.719 2.293zm212.682 5.732c.566 1.152 1.346 2.442 2.736 2.641.611-.063 1.76.64 2.01-.135l2.133-4.799-2.293-1.146c.371-.992.938-2.163.301-3.177-.387-.655-.963-2.051-1.221-.619-.705 1.675-.43 3.501-.301 5.25.166 1.226-1.086 1.853-2.123 1.893-.412.054-.826.08-1.242.092zm-22.357-5.159h1.721l-.574-1.72-1.147 1.72zm-140.451-1.146l1.72 1.72-1.72-1.72zm115.8 1.146c.984.203 2.174.543 3.01-.232.422-.36 1.475-1.182.406-.743l-3.416.975zm-41.847.574l2.293.573v-1.72l-2.293 1.147zm-126.694.573v1.72h1.72v-1.72h-1.72zm81.978 1.146l2.293 1.72-.573-2.293-1.72.573zm113.507 0c-.242 1.404-.4 3.113-1.789 3.885-.412.539-1.756.292-1.65 1.097v4.191l2.867-1.72.572 1.72 5.16-3.439c-.047-1.271.441-2.608-.08-3.825-.758-1.178-2.291-1.363-3.549-1.657-.508-.098-1.019-.178-1.531-.252zm-87.137 2.293l2.293 1.146v-2.866l-2.293 1.72zm119.813-1.719l-1.146 4.013c1.004-.543 2.006-1.372 2.105-2.592.031-.603.547-1.687-.434-1.421h-.525zm-301.539 4.012l3.44-3.439c-1.09.241-2.458.213-3.189 1.195-.411.667-.336 1.5-.251 2.244zm180.007-2.866l1.146 2.866.572-2.293-1.718-.573zm-95.163 2.866l-3.439-1.146 1.146 2.293c-.64.734-1.609 1.747-.963 2.776.336.413.94 1.769 1.243.747l2.013-3.522c1.391-.2 2.698-.987 3.364-2.249.209-.462 1.112-1.505.056-1.092-1.079.12-2.208.478-2.844 1.424-.203.249-.391.508-.576.769zm-72.805-1.146l-.573 1.72c.263.153.442.714.783.49l2.657-1.063-.573-1.72-2.294.573zm158.222 0v1.146l2.293.573.572-2.293-2.865.574zm-127.839 2.867c1.348-.111 2.918-.159 3.83-1.327.458-.484 1.13-1.171.049-1.095-1.023-.214-2.266-.112-2.91.826-.39.488-.682 1.044-.969 1.596zm93.443.573c1.682-.491 3.316-1.553 3.941-3.261-.092-.349-1.289.2-1.794.252-1.016.204-1.753 1.067-1.942 2.064-.085.312-.15.628-.205.945zm123.58-.173c.971-.489 1.391-2.043.404-2.73-.895-.573-2.008-.494-3.025-.537-.189 1.338-.381 2.676-.572 4.014 1.066-.202 2.208-.247 3.193-.747zm-62.815-.4l-1.146-2.294c-.424.958.166 1.814 1.039 2.215l.107.079zm75.672-2.867l-2.865 1.146 2.865-1.146zm-252.238 1.719c.307.972.944 2.138 2.122 2.077.74-.155 2.129.021 2.465-.583v-2.067c-1.529.192-3.058.383-4.587.573zm5.733 2.868l6.306 1.146c-.326-1.189-.665-2.738-2.026-3.126-1.107-.335-2.189-.781-3.133-1.461-.711.692-1.547 1.529-1.245 2.624l.098.817zm33.823 0c.875-.548 1.922-1.146 2.072-2.277.082-.522.517-1.531-.368-.967-.911.232-1.905.875-1.799 1.943-.008.435.042.869.095 1.301zm131.444-1.4c-1.004.538-1.6 1.898-.928 2.913.488.923 1.871 1.308 2.627.487.758-.784 1.018-1.91.939-2.973v-1.322c-.898.231-1.843.386-2.638.895zm-182.465 1.4l2.866 1.72-1.146-3.439-1.72 1.719zm5.974-1.05c-1.077-.658-2.266.684-1.829 1.75.558 1.611 2.246 2.382 3.626 3.173.398.342.544-.419.813-.642l2.308-3.231-4.013 1.146c-.131-.773-.139-1.749-.905-2.196zm163.141 3.343c1.176-.145 2.676-.121 3.379-1.247.383-.781.318-2.175-.045-2.708-1.197.628-2.506 1.38-2.93 2.762-.156.39-.283.79-.404 1.193zm17.77-2.293v1.146l3.439 1.146 2.867-1.146c-.686-1.187-1.934-2.221-3.385-2.016-1.019.099-1.978.493-2.921.87zm-163.381 1.146v1.146l1.72.573c.157-.265.702-.438.501-.788l-.501-1.505-1.72.574zm115.227 1.147c.938-.083 1.981-.371 2.18-1.448.297-.558-.426.189-.654.304l-1.526 1.144zm127.839.573l2.293-1.72c-.938.082-1.98.37-2.18 1.447l-.055.132-.058.141zm-299.819-1.147c.326 1.143.754 2.491 1.994 2.932.623.221 1.819.95 1.351-.228-.1-.961-.391-2.188-1.492-2.425-.602-.177-1.232-.225-1.853-.279zm83.697 2.867l2.866-2.866c-.979.292-2.17.636-2.483 1.751-.146.365-.263.741-.383 1.115zm126.693-2.867c-.383 1.146-.766 2.293-1.146 3.439.916.132 2.242.199 2.611-.87.115-.729.561-2.206.029-2.569h-1.494zm-145.611 2.867l2.866-.573v-1.146c-.957-.205-2.311-.288-2.574.941-.106.255-.199.517-.292.778zm9.746-.574v-1.146l-1.146-.573c-.425 1.053.184 1.474 1.146 1.719zm77.964 0l1.72-1.72-1.72 1.72zm73.866 3.446c1.342-.168 1.615-1.865.994-2.854-.574-1.138-1.799-1.854-3.053-1.95-.977.447-2.248 1.323-1.887 2.576.523 1.325 1.982 2.055 3.326 2.245.207.02.416.02.62-.017zm-195.399-4.592l-.573 1.72 1.72-1.72h-1.147zm64.779 0c.422 1.231 1.214 2.611 2.656 2.738 1.02.138 2.052.062 3.077.128-.372-1.283-1.269-2.583-2.698-2.748-1.002-.169-2.023-.1-3.035-.118zm-130.131 1.146l.573 2.866-2.866-1.72 2.293-1.146zm68.218 4.586c1.956-.244 3.909-.545 5.866-.753 1.481.008 2.882.805 4.367.573.92-.184 1.771-1.437 1.674-2.154-1.278-.338-2.639-1.196-3.964-.58-.612.043-1.381 1.346-1.708.979l-.502-1.505c-1.5.155-3.248-.091-4.456 1-.669.656-1.001 1.565-1.277 2.44zm128.642-1.112c-.009-1.038-.958-2.059-2.04-1.618-1.144.359-2.081 1.2-2.775 2.157l-3.44-1.72-2.292 2.293 1.146 5.732 4.014-4.013v5.159c1.605-.8 2.713-2.311 3.737-3.734.794-1.276 1.722-2.689 1.65-4.256zm124.17 2.832h1.146v-4.586c-.904.62-1.842 1.596-1.574 2.793.086.609.27 1.2.428 1.793zm-269.436-4.013v1.72h1.72v-1.72h-1.72zm42.422 0l1.72 1.72-1.72-1.72zm-86.564 3.44c-.979-.295-2.113-.692-2.446-1.778-.163-.485-.775-1.396.171-.985.956.089 2.086.545 2.155 1.648.07.368.098.742.12 1.115zm55.034 1.146l-4.586-3.439c-.261 1.262-.012 2.924 1.354 3.435 1.03.406 2.184.257 3.232.004zm-53.314-1.146l.573-2.293-.573 2.293zm44.142 0c.265.157.438.702.788.502l1.505-.502c.037-.357.023-.693-.319-.893l-.827-.827-1.147 1.72zm260.757 3.491c1.189-.191 2.02-1.409 1.758-2.584-.17-.96-.758-2.137-1.846-2.218-1.047.189-1.273 1.441-1.455 2.324-.053.822-.008 1.652-.023 2.478.519.086 1.054.202 1.566 0zm-207.443-4.638l-.573 1.72 1.72-1.72h-1.147zm68.792 1.72v-1.146l-1.146-.573c-.425 1.054.184 1.474 1.146 1.719zm-75.099-1.146v1.72c1.149-.05 2.544.127 3.363-.878.431-.436.926-1.025.029-.842h-3.392zm-66.264 1.186c-.736-.303-1.965-.785-2.556-.446l-.545 3.272 2.293-1.72c.186 1.021.62 2.351 1.801 2.535 1.267.104 1.595-1.602.797-2.355-.467-.581-1.121-.976-1.79-1.286zm204.813 2.603c.848-.328 1.426-1.704.539-2.3-1.043-.48-2.031.278-2.959.678-.441.063-.207.554-.264.86-.119.825 1.234.753 1.799.941.303.01.607-.055.885-.179zm23.113.223c.158-.878.512-2.041-.281-2.713-.709-.402-2.021-.799-2.586-.575.068 1.613 1.678 2.507 2.867 3.288zm-57.9.573c1.209-.28 2.541-.644 3.255-1.756.349-.509 1.196-1.349.062-1.176-.965-.116-2.047.224-2.5 1.146-.335.566-.567 1.182-.817 1.786zm-158.222-2.293v1.72h-2.293c.522.88 1.351 1.913 2.508 1.681 1.433-.316 2.886-.736 4.372-.534l-1.72.573c.655 1.09 1.669 2.129 3.029 2.137.876.021 1.92.142 2.704.101v-2.811l-2.866-3.439-5.734.572zm223.001-.573c-.227.289-.689.48-.572.912.045.364-.148.826.238 1.048.205.339.535.379.898.333.359.035.701.026.902-.319.361-.195.236-.593.254-.932.096-.384-.111-.643-.4-.868-.227-.329-.682-.111-1.02-.174h-.3zm53.314 5.159h4.586c-.191-1.528-.383-3.057-.572-4.586-.312-.284-.594-.833-1.012-.324-1.371.727-2.348 2.053-2.674 3.565-.123.446-.226.895-.328 1.345zm-259.117-2.866h2.866c.037-.356.023-.692-.319-.893l-.827-.827-1.72 1.72zm12.612-1.72l-.573 3.439 1.72-3.439h-1.147zm74.623 3.549c.639.961 1.986.557 2.928.422.83-.349 2.208-.107 2.75-.644l.531-2.754c-1.954-.376-4.232-.259-5.805 1.094-.523.458-.843 1.258-.404 1.882zm49.777 1.037c.844-.514 1.977-1.132 1.99-2.252-.158-1.083-1.18-1.729-1.99-2.334v4.586zm-145.038-3.439l-.573 1.72 1.72-1.72h-1.147zm115.227 2.866l2.293-1.146c.037-.356.023-.692-.319-.893l-.827-.827-1.147 2.866zm-28.663-2.293c-.517 1.087-1.329 2.468-.521 3.616.96 1.098 2.8.981 3.901.158.711-.539 1.405-2.073.986-2.683-1.455-.362-2.911-.727-4.366-1.091zm206.824 5.063c1.395-.594 1.678-2.815.295-3.591-.707-.394-1.818-.812-2.311.092-1.014 1.071-.619 3.081.812 3.563.389.137.83.113 1.204-.064zm-164.402-1.05c.959-.243 2.164-.838 1.817-2.043.004-.752-.133-.945-.446-.242l-1.371 2.285zm-128.412-1.147c.947.218 2.127.31 2.595-.761.621-.656-.222-.158-.568-.05l-2.027.811zm210.39 1.147l1.146-2.293-1.146 2.293zm-137.585-1.72l4.013 2.866.573-2.293c-1.529-.19-3.057-.381-4.586-.573zm154.782.573v1.146c1.338.383 2.676.765 4.014 1.146.012-.991-.211-2.344-1.367-2.574-.885-.17-1.788.083-2.647.282zm-116.946.574l2.293 1.72-.573-2.293-1.72.573zm60.227-.086c-1.18.453-2.316 1.688-1.875 3.027.246.99 1.447 1.867 2.41 1.221.902-.735 1.256-1.927 1.756-2.941.154-.648 1.084-2.153-.189-1.747-.717.043-1.444.141-2.102.44zm28.629-.488c-.096.955-.418 2.226.555 2.856.506.322 1.473.965 1.111-.104.049-1.043-.486-1.989-1.373-2.529l-.141-.108-.152-.115zm-227.014 2.293h1.72l-.573-1.72-1.147 1.72zm54.46 0l1.72-1.72-1.72 1.72zm81.404-1.719c.199 1.325.427 2.762 1.446 3.733.451.519 1.052 1.217.763.181l-.489-3.914h-1.72zm55.035.573l.572 1.72 2.293-1.72h-2.865zm-211.64 2.345c1.245-.272.74-1.826-.367-1.822-.998.524-.986 1.964.367 1.822zm27.047-2.345l-.573 1.72 1.72-1.72h-1.147zm78.538 4.014l5.159.573-.573-4.587c-1.604.418-3.334 1.132-4.065 2.741-.212.408-.378.837-.521 1.273zm9.172-3.441v1.146l4.013 2.294c.233-1.093.606-2.471-.238-3.395-.995-.764-2.346-.365-3.459-.129l-.156.041-.16.043zm10.892.573l2.293-.573-2.293.573zm-14.905.574l2.293-1.146-2.293 1.146zm21.211-.574c-.067.943-.125 2.214.998 2.558.605.407.837.301.589-.355l-.44-2.202-1.147-.001zm201.216 1.721v-1.147l-1.146-.573c-.424 1.054.185 1.475 1.146 1.72zm1.149-1.147v1.147l4.586 3.439c.256-1.361.594-3.026-.418-4.17-1.129-1.015-2.825-.667-4.168-.416zm-18.346 1.72v3.439l2.293-.573-.572-2.866h-1.721zm-172.554.574c-.226.289-.691.479-.573.912.079.29-.194.819.21.892l2.656 1.062-2.293-2.866zm157.075 0l1.721 1.72-1.721-1.72zm55.035 0l-2.295 1.72v2.293l3.441.573c.336-1.027 1.092-2.218.471-3.278-.395-.587-1.023-.955-1.619-1.308h.002zm-308.992 2.293c1.242.688 2.746 1.47 4.178.896.991-.475 1.377-1.608 1.555-2.616l-5.733 1.72zm26.37-1.72v1.72h1.72v-1.72h-1.72zm250.519 1.72l-2.293-1.146v3.439l1.719-.573v2.866l3.439.573-2.865 3.439 1.146 4.586h1.719c-.008-2.685.953-5.664 3.396-7.083 1.215-.722 2.656-.982 4.057-.942v-2.293h-4.586l.572-2.866-2.865.573.572-2.293c-1.148.05-2.543-.127-3.363.877-.242.26-.451.548-.648.843zm-169.115.573l1.72-1.72-1.72 1.72zm217.842-1.72c.766.955 1.529 1.91 2.293 2.866-.121-1.019-.377-2.241-1.525-2.547-.255-.113-.511-.215-.768-.319zm-289.5.573l1.72 1.72-1.72-1.72zm255.105 1.72l.572 2.293c-.715.605-.971 1.633-.592 2.494.316.716.42 1.974 1.404 1.23 1.104-.101 1.08-1.569 1.65-1.989l6.137.558c-.566-1.218-1.34-2.481-2.682-2.94-.564-.312-1.59-.254-1.332-1.12v-2.245l-5.157 1.719zm-200.645 1.72l1.72-1.72-1.146-1.146-.574 2.866zm209.243-2.866l1.721 3.439c.289-.894.807-2.241-.268-2.829-.451-.272-.957-.439-1.453-.61zm-209.816 8.025c.951-.271 2.056-.77 2.117-1.907.67-1.218-.86-1.325-1.546-1.967-1.282-.89-2.12-2.239-2.864-3.578-.961.228-2.386 1.125-1.527 2.244 1.149 1.643 2.71 2.989 3.617 4.806l.203.402zm38.231-5.097c-.611-1.156-1.987-2.008-3.303-1.52-1.632.517-3.122 2.348-2.452 4.104.435.938 1.727.895 2.445.327 1.19-.795 2.686-.829 4.061-.681-.184-.763-.318-1.556-.751-2.23zm-137.407 1.657l2.867-2.866c-.963.229-2.277.389-2.567 1.532-.143.434-.22.886-.3 1.334zm75.099 0l4.013-.573c-.47-1.185-1.727-2.344-3.078-1.976-1.005.38-1.058 1.649-.935 2.549zm70.85-1.869c-.799-.689-2.184-1.137-2.999-.225-.862.964-.195 2.471.886 2.932 1.004.595 2.177.35 3.279.4h1.936v-1.812l-1.72.573c-.396-.666-.738-1.395-1.382-1.868zm38.07 1.296l2.867.573c.363-.338.844-.674.225-1.113-.432-.953-1.756-1.446-2.4-.417-.26.296-.483.624-.692.957zm90.004 0l-.574-2.293.574 2.293zm51.594-.573l-1.146-1.72 1.146 1.72zm-373.771-1.146v1.72h1.72v-1.72h-1.72zm239.626 0c-.227.289-.691.48-.574.912.045.363-.148.826.24 1.047.205.34.535.379.898.334.359.035.699.025.902-.319.361-.196.234-.594.254-.932.094-.384-.111-.643-.4-.868-.229-.329-.682-.111-1.021-.174h-.299zm137.584.573c-.129 1.067-.35 2.398.592 3.183.43.361 1.4 1.283 1.041.215l-.486-3.397-1.147-.001zm-245.932 1.146l2.293 1.72-.573-2.293-1.72.573zm-81.404 1.147c.428 1.103.965 2.52 2.266 2.786 1.306.049 2.128-1.197 2.709-2.199.095-.426 1.245-1.908.37-1.656l-5.345 1.069zm51.021-1.147l-.573 1.72 1.72-1.72h-1.147zm147.331 1.72l2.865-1.146-2.865 1.146zm81.976-1.72v1.72h1.721v-1.72h-1.721zm-166.247 1.147v2.293c.974-.244 1.913-.793 2.12-1.859.491-.643-.347-.384-.73-.434h-1.39zm139.304 7.452c.572-2.483 1.146-4.968 1.721-7.452-1.779.469-3.408 1.996-3.422 3.926-.043 1.364.656 2.676 1.701 3.526zm-167.395-6.879l2.867 2.293c-.271-.951-.77-2.056-1.907-2.117-.318-.067-.639-.119-.96-.176zm-139.304 2.866l4.013.573c-.412-1.01-.938-2.222-2.067-2.564-1.102-.154-1.632 1.163-1.946 1.991zm323.324.31c.928.343 2.436.455 2.811-.716.297-1.149-.957-2.067-2.02-1.87-.961.096-1.906.587-2.35 1.479-.381.369.457.442.693.663l.866.444zm22.93-.883l-2.865-.573v1.146c1.055.896 2.061 1.995 2.248 3.423.217 1.153-.062 2.607.963 3.439 1.096.85 3.08.449 3.553-.913.162-1.066-1.025-1.732-1.943-1.822-.65-.018-.98-.126-.316-.495l4.668-3.632c-.672-1.103-1.811-2.257-3.227-1.955-1.118.215-2.101.84-3.081 1.382zm9.173 4.586c-1.383.458-2.762 1.283-3.301 2.71-.109.408-.893 1.871-.531 1.741l2.111-1.585 2.293 1.147.574-4.014c1.404-.224 3.066-.832 3.471-2.365.332-1.334-.133-2.7-.605-3.94-1.461.808-3.316 1.491-3.887 3.227-.306.995-.224 2.058-.125 3.079zm7.452-6.306c-.316 2.562.688 5.395 2.867 6.879l-.574 2.293 2.293.573-1.146-2.293c1.006-.957 1.881-2.499 1.174-3.874-.956-1.769-2.929-2.654-4.614-3.578zm-333.745 2.918c1.245-.272.739-1.827-.367-1.823-.998.525-.986 1.965.367 1.823zm59.15-1.771l2.866 1.146-2.866-1.146zm60.193-.574c-.188.896-.287 2.514 1.066 2.389.648.016 1.475.075 1.227-.773.121-.419-.141-.602-.505-.721l-1.788-.895zm146.757 2.867c2.047.639 4.254.605 6.305 0l-1.146-2.866c-1.879.388-3.877 1.037-5.025 2.69l-.134.176zm-211.496-1.307c-.871.338-1.977 1.281-1.42 2.304.626.99 2.039.432 2.465-.461.336-.545.902-2.018.416-2.202l-1.461.359zm79.644-.413v4.013h1.146v-4.013h-1.146zm81.977 0c.125.849.436 2.582 1.676 1.986.436-.269 1.729-.877.666-1.05l-2.342-.936zm-261.983 2.866v-1.146l-1.146-.573c-.425 1.054.184 1.475 1.146 1.719zm391.542-1.72c-.227.29-.691.48-.572.912.043.364-.15.826.238 1.048.205.339.535.379.898.333.359.035.699.026.902-.319.361-.195.234-.593.254-.932.096-.384-.111-.643-.4-.868-.229-.329-.682-.111-1.021-.174h-.299zm-197.204.574l-.573 2.866c.29.227.48.691.912.573.273-.084.863.206.845-.223l.536-3.217-1.72.001zm157.649 0v3.439l1.719-3.439h-1.719zm-330.203.573c-.227.29-.691.48-.573.912.081.286-.198.832.214.879l3.225 1.075.573-1.72-3.439-1.146zm11.465 0c.191 1.051.507 2.448 1.729 2.692.969.154 1.927-.166 2.856-.399v-1.146l-4.585-1.147zm26.944 1.72l2.293-1.72c-.937.082-1.981.371-2.179 1.448l-.056.131-.058.141zm35.491 1.869c.984-.292 1.904-1.612 1.202-2.56-.645-.646-1.83-.867-2.412-.028-.744.558-1.016 1.863-.098 2.392.382.247.87.32 1.308.196zm80.309-.723c1.033-.27 1.805-1.137 1.672-2.244.126-.716-.007-.602-.271-.089l-1.401 2.333zm61.913-2.866l-.573 3.439 2.293-1.146-.573-2.293h-1.147zm41.585 4.03c.84-.352 1.723-1.267 1.473-2.243-.447-.789-1.77-1.074-2.416-.371-.701.458-1.42 1.518-.684 2.254.418.412 1.076.546 1.627.36zm33.215.556c.287-1.276.072-3.014-1.311-3.546-.979-.394-1.996.305-2.365 1.211-.932 1.957-2.98 2.938-4.812 3.873-.82.394.402 1.741.979 2.056 1.299.498 2.559-.406 3.693-.95.426-.234.918-.52.324.061-.674.861-1.602 1.971-1.113 3.13.678 1.161 2.035 1.635 3.184 2.192l1.721-3.439c1 .094 2.342.359 3.01-.607.561-1.054.619-2.286 1.002-3.406l.574 2.294 4.012-.573c-.014-1.158-.176-2.467-1.189-3.202-1.074-.849-2.412-1.72-3.842-1.515-.996.347-1.361 1.479-1.785 2.353-.537 1.315-.969 2.682-1.209 4.084h-1.719c.016-1.397.57-2.67.846-4.016zm22.656-4.013l-.574 2.293c.975-.244 1.914-.793 2.121-1.858.49-.644-.348-.385-.73-.435h-.817zm-225.868.573l-.573 1.72 1.72-1.72h-1.147zm95.162.574l1.72 3.439v-3.439h-1.72zm98.028 2.866l-.572-2.866.572 2.866zm74.309-2.281c-.896.424-2.133 1.071-2.016 2.233.338 1.208 1.75 1.712 2.887 1.779 1.016.112 2.145-.588 2.119-1.694.076-1.077-.59-1.989-1.053-2.903l-1.937.585zm-163.737-.012l1.72 1.721-1.72-1.721zm-56.754.574c.24.975.736 1.979 1.845 2.137.717.461.28-.342.229-.721l-.354-1.416h-1.72zm62.486 4.013c1.349-.537 2.694-1.279 3.45-2.574.371-.482.846-1.07-.086-.926-1.042-.117-2.266.221-2.699 1.274-.34.7-.497 1.471-.665 2.226zm200.071-2.866l2.865-.573-2.865.573zm-353.134-.575l-.573 1.72 1.72-1.72h-1.147zm188.033 0v1.72l1.719-1.146-1.719-.574zm9.746 1.72l1.719-1.72-1.719 1.72zm18.918 1.147l-3.441-.573.574 2.294c-.791-.763-1.238-1.937-2.293-2.386-.672-.183-1.889-.16-2.236.214.873 1.801 2.189 3.72 4.27 4.168 1.178.256 2.348-.182 3.326-.815l2.094-1.181 1.146-4.587c-1.025.17-2.275.365-2.764 1.426-.26.463-.461.956-.676 1.44zm-184.02-2.293l1.72 2.293v-2.293h-1.72zm249.946.573l.572 1.72 1.721-2.293-2.293.573zm-319.134 6.249h7.848c-1.473-2.093-3.826-3.439-6.306-3.956l.573-2.293c-1.66.8-3.358 2.302-3.332 4.292.022.811.49 1.586 1.217 1.957zm406.843-5.103c-1.104.061-2.318-.063-3.127-.906-.322-.334-1.369-1.029-.322-.75 1.062.053 2.154.333 2.904 1.139l.545.517zm-353.053-.132c-1.214-.061-1.988 1.365-1.335 2.377.468 1.172 1.957.703 2.313-.285.346-.646.435-1.396.662-2.092-.548-.002-1.103-.194-1.64 0zm82.47 1.853l1.72.573.573-2.867-2.293 2.294zm249.372-2.294c-.191 1.529-.383 3.058-.572 4.587l3.439.573-1.721-2.293.574-2.867h-1.72zm-358.866 2.867l1.146-2.294-1.146 2.294zm102.042-2.294c-.701 1.723-1.614 3.56-1.148 5.468.481 2.203 1.522 4.385 3.261 5.865.358.283-.06-.593-.066-.854l-.327-1.307c2.027-.013 3.931.739 5.85 1.283 1.33.436 2.981-.351 3.23-1.787.343-2.035-.681-4.098-2.08-5.523-.748-.778-2.079-1.387-3.033-.597-.905.833-1.2 2.092-1.674 3.185-.613-1.694-.746-3.785-2.355-4.896-.507-.361-1.078-.62-1.658-.837zm25.418 4.73c-.655-1.541-2.216-2.414-3.599-3.218-1.114-.599-2.274-1.114-3.476-1.512-.771.717-1.733 1.389-2.844 1.224-.635-.061-1.365-.269-1.333.581-.519 2.073-1.037 4.147-1.555 6.222l6.879 2.293 2.867-2.866c1.1.073 2.599.032 3.139-1.121.203-.517.097-1.094-.078-1.603zm4.965-4.73c.277 1.073.442 2.514 1.631 2.954.699.189 1.913.148 2.321-.187-.601-1.047-1.356-2.18-2.626-2.442-.436-.128-.881-.226-1.326-.325zm211.737 8.88c-.572-1.401-.773-2.987-1.797-4.175-1.252-1.544-3.006-2.58-4.715-3.551-.973-.537-2.33-1.089-3.311-.269-.938.934.123 2.181 1.102 2.503 1.277.666 2.654 1.112 3.934 1.771-.996.081-2.189.027-2.832.953-.33.557-.695.924-1.32.588l-1.58-.395c-.168 1.894-.426 4.028.723 5.684.295.44 1.314 1.312 1.529 1.031l-.533-2.129c1.139.822 2.434 1.796 2.605 3.302.27 1.077.99 2.261 2.148 2.503 1.146.193 1.266-1.255.68-1.924-.523-.99-1.088-1.961-1.588-2.963-.508-1.995.094-4.056.053-6.077l2.98.573v3.439c-.777.493-1.73 1.11-1.852 2.104.176 1.032 1.51 1.166 2.371 1.17 1.176-.021 2.336-.229 3.494-.407-.281-1.12-.924-2.078-1.65-2.955-.165-.246-.31-.508-.441-.776zm-305.753-8.306v2.867h1.146l.573-2.294-1.719-.573zm-100.322 1.72l2.293-1.147-2.293 1.147zm44.141 2.866c1.588-.435 3.25-1.254 4.916-.69.793.13 2.009.733 2.504.541-.311-1.374-.984-3.04-2.537-3.322-1.739-.195-3.251 1.073-4.252 2.364-.252.343-.476.71-.631 1.107zm216.122-4.013v1.721h1.721v-1.721h-1.721zm33.824 3.279c1.002.088 2.387-.117 2.703-1.252.244-1.183-1.258-1.678-2.146-1.216-1.02.334-1.764 1.144-2.277 2.056l1.72.412zm-268.29-2.705c.24.975.736 1.979 1.844 2.137.862.458-.026-1.212-.379-1.519-.436-.308-.972-.431-1.465-.618zm-21.784.573l-1.147 4.586c1.32.219 2.735.509 4.005-.091.581-.241 1.529-.377.86-1.109-.532-1.252-1.294-2.554-2.656-3.022-.345-.145-.702-.261-1.062-.364zm219.723 6.983c1.031-1.168 1.637-2.721 1.771-4.269.145-1.055-.57-2.278-1.725-2.253-1.066.223-1.164 1.526-1.354 2.405-1.465-.256-2.792-.939-4.062-1.678-1.133-.497-2.338.116-3.391.531l2.866 1.72c-.996 1.165-2.375 2.11-2.879 3.618-.316 1.302.187 2.61.586 3.834l1.72-.573-.574-2.293c2.021.236 4.115.088 6.06-.522.348-.127.696-.28.982-.52zm-64.941-6.409c-.118.947-.325 2.255.691 2.802.585.256 2.009 1.145 1.473-.089-.082-1.057-.766-1.922-1.686-2.405l-.478-.308zm94.589.573l2.293 1.72-.572-2.293-1.721.573zm23.504-.573c.076 1.217-.133 2.57.545 3.653.861.957 2.295.831 3.469.933l-2.293-4.586h-1.721zm26.359 4.723c.979-.017 2.355-.273 2.523-1.434.041-1.396-1.234-2.619-2.564-2.821-1.365-.164-2.25 1.331-2.205 2.544.145.536-.375 1.884.508 1.711h1.738zm28.676-2.431l-4.588-.573-2.293 3.439 6.307 2.293-2.293 2.293-2.867-.573 1.721 4.013c-1.113.587-1.795 1.944-1.354 3.172.467 1.482 1.914 2.982 3.592 2.645 1.383-.225 2.676-1.126 4.121-.758 1.406.146 2.895.574 4.273.072 1.105-.542.629-2.01.104-2.808-.879-1.284-2.629-1.256-3.998-1.014-.852-.017-2.236.922-2.648-.162-.262-1.324.008-2.678-.076-4.014 1.387.163 2.631.839 3.955 1.219 1.057.221 1.494-1.006 1.777-1.792l2.293 1.146c-.023.947.1 2.239 1.211 2.517.559.027 1.811.817 1.725-.153.172-1.675.678-3.366.283-5.046-.248-1.372-1.578-2.221-2.9-2.305-2.393-.282-4.83.394-7.197-.172l2.293-.573c-.383-1.72-.766-3.439-1.146-5.159-.975.239-1.98.735-2.137 1.844l-.158.449zm-260.838 4.586c1.337-2.103 2.675-4.204 4.013-6.306-1.894.646-3.887 1.983-4.221 4.104-.117.738-.018 1.496.208 2.202zm114.08-6.878l-2.293 3.439c.168-1.023.275-2.253 1.283-2.826.325-.225.668-.419 1.01-.613zm17.772.573v1.72l1.72-1.146-1.72-.574zm135.291.573l.574 3.439 2.293-1.146.572 2.293c1.869-.132 3.818.184 5.625-.425 1.131-.425 1.91-1.995 1.029-3.003-.838-.921-2.158-.353-3.16-.092-1.182.357-2.348.767-3.494 1.227-.291-.938-.793-2.076-1.93-2.144-.499-.08-1.005-.104-1.509-.149zm41.275 1.72l-1.146-1.72 1.146 1.72zm-151.916-1.147l-.573 3.439h1.72v-3.439h-1.147zm12.613 3.743c.935.374 2.35.51 2.888-.558.604-1.174-.423-2.827-1.779-2.609-1.238.154-2.188 1.104-2.746 2.165-.108.297.586.381.823.587l.814.415zm67.071-1.45l2.867-.573-.572-1.72c-.977.239-1.98.735-2.139 1.844l-.156.449zm85.99-2.293l-.572 2.293c-.955-.383-1.91-.765-2.867-1.146l2.293 2.293-.572 2.866 2.867-.573c.189-1.72.381-3.439.572-5.159-.289-.227-.48-.691-.912-.573l-.809-.001zm-347.354 3.158c-.659 1.287.154 2.758 1.057 3.698.771.814 2.141 1.529 3.15.713 1.155-1.16 1.228-2.932 1.414-4.466.48-1.39-1.546-.824-2.376-1.09-1.15-.048-2.578.052-3.245 1.145zm273.403.282h3.439l.574-1.72c-1.293.166-2.764.258-3.672 1.334l-.341.386zm50.447 2.866c-.189-1.528-.381-3.058-.572-4.586-1.154.623-2.467 1.557-2.57 2.982.097 1.495 2.021 1.634 3.142 1.604zm3.44-4.586v1.72l2.867-1.72h-2.867zm-314.15.573v2.293l-1.72 1.146 2.293.573 1.146-3.439-1.719-.573zm170.261 4.586c.326.337.622.795 1.13.402 2.632-.818 5.513-1.729 7.22-4.047.605-.722-1.141-.491-1.631-.635-2.372-.165-4.915.865-6.121 2.995-.243.407-.442.839-.598 1.285zm-141.598-4.013l-.573 2.293c.978-.226 1.688-.971 1.666-2.004.211-.521-.593-.201-.906-.289h-.187zm3.44 0l1.72 1.72-1.72-1.72zm204.084 3.44c1.91.382 3.82.765 5.732 1.146l-.574-4.013c-.252-.134-.469-.761-.754-.438l-4.404 3.305zm-47.582-2.293l.573 5.732c.958-.586 2.21-1.235 2.264-2.517.17-.64-.289-1.527.481-1.835l1.842-1.381-5.16.001zm16.05-.573l2.293 2.293c-.238-.975-.734-1.98-1.844-2.137l-.449-.156zm5.735.573c.645 1.304 1.312 2.981 2.928 3.265.9.143 1.982.229 2.805.118v-2.236l-5.733-1.147zm80.83 3.439c.904-.728 2.107-1.433 2.211-2.721.037-.528.338-1.758-.443-.945-.846.521-1.783 1.234-1.785 2.333-.038.445-.014.89.017 1.333zm-247.079-3.439v2.293l1.72-2.293h-1.72zm189.753 0l1.146 2.293.572-2.293h-1.718zm92.295 2.293l-1.719 1.72h2.293v-4.013l-.574 2.293zm-182.299 0l2.293-1.146-2.293 1.146zm175.66-1.055c-1.064-.269-2.164.147-3.215.346-.924.219-1.836.483-2.758.709.645 1.587 1.322 3.232 1.188 4.983.107.781-.504 2.315.791 1.818 1.162-.159 2.375-.066 3.406.534.453.028 1.664 1.201 1.494.238v-2.415h-2.293v-1.146c1.139-.165 2.506-.791 2.605-2.098.061-1.083-.441-2.223-1.218-2.969zm-188.272 3.921c1.098-.322 2.106-1.109 2.367-2.269.099-.517.532-1.452.387-1.7-1.071.38-2.286 1.009-2.487 2.251-.137.564-.197 1.143-.267 1.718zm170.834-4.013l-.574 3.439 1.721.573v-4.013l-1.147.001zm-268.29 3.44l-.573-2.866c-.622.811-.667 1.926.265 2.534l.308.332zm101.469-1.147c.407.368.769.845 1.203 1.146.441.1.622-.062.517-.508v-2.358l-1.72 1.72zm46.435-1.719v1.72l1.72-1.146-1.72-.574zm-183.102 2.47c-.521.773-.067 2.144-.514 2.688h-1.55c.08 1.371-.157 2.946.753 4.098.847.857 2.13.941 3.26 1.062l-.573 2.866 2.866-.573-1.146-2.293 2.293 1.72c.945-.514 1.875-1.421 1.704-2.594-.124-1.246-.471-2.46-.558-3.712l1.72 2.293 1.72-.573-.573-1.146 2.293-2.293h1.146l2.866 5.159h1.146c.384-2.073-.358-4.369-2.116-5.612-2.501-1.823-5.999-1.938-8.776-.693-1.167-1.602-3.672-2.395-5.36-1.148-.252.202-.46.46-.601.751zm202.592 2.116c.887-.542 2.078-1.052 2.18-2.241.041-.51.387-1.58-.445-.989-.973.263-1.662 1.132-1.641 2.146l-.094 1.084zm18.918-3.44c-.824 1.4-2.41 2.15-3.998 2.206-.557.246-1.957-.371-1.734.595v1.212c1.209.074 2.355.674 3.051 1.676.652.823 1.324 1.637 2.109 2.337v-2.866l3.439-.573c-.307-1.361-.244-3.081-1.543-3.948-.404-.282-.861-.477-1.324-.639zm-174.846.573l2.866 2.293-2.866-2.293zm252.891 5.16c1.385-.479 2.596-2.018 2.215-3.524-.326-.887-1.623-1.442-2.434-1.045-1.1.918-1.967 2.409-1.621 3.874.223.81 1.15.935 1.84.695zm-104.414-4.013c.295.979.691 2.113 1.777 2.445.588.276 1.285.675 1.199-.247l.463-2.771-3.439.573zm-77.966 0c.384.936 1.344 1.462 2.167.646.19-.172-.621-.206-.86-.318l-1.307-.328zm121.534 0l-.574 2.293 1.721.573v-2.866h-1.147zm-156.99 1.066c-1.413.298-2.013 2.048-1.399 3.271.479 1.112 1.45 1.923 2.459 2.541l5.733-2.293v-1.146c-1.97-.952-3.936-2.071-6.127-2.402-.221-.02-.448-.022-.666.029zm170.174-.493l1.721 1.72-1.721-1.72zm37.836 3.44l-2.865-.573c-.453 1.366-.623 3.218.629 4.222 1.42 1.104 3.664.239 4.188-1.419.4-1.078.328-2.247.342-3.376l2.293.573-.572-2.866c-1.252.336-2.773.62-3.4 1.91-.266.483-.447 1.005-.615 1.529zm28.664-4.013c-.184.099-.637.845-.572.348-.126-.535.234-.299.572-.348zm-191.472 4.586c1.291.161 2.664.662 3.934.172 1.074-.663 1.062-2.102 1.199-3.216.126-.814-1.236.027-1.735-.025-1.46.289-2.767 1.286-3.263 2.714l-.135.355zm-105.481 1.146c.79-.755 1.586-1.653 1.613-2.81.017-.506.339-1.668-.352-.807-.725.575-1.468 1.348-1.366 2.353.004.423.054.845.105 1.264zm16.051-2.293c.407.368.769.845 1.203 1.146.371.07.666-.043.876-.359.249-.287.605-.528.787-.844.07-.37-.043-.665-.359-.876l-.787-.787-1.72 1.72zm130.705-.573c.655 1.225 1.45 2.529 2.845 2.997.646.303 1.409.738 1.432-.317.387-.925.447-1.97.055-2.903-.08-.764-.407-1.071-1.078-.706l-3.254.929zm40.703 1.72c.973.537 2.195 1.257 3.305.687 1.09-.809 1.131-2.319 1.281-3.553-1.391.303-2.82.799-3.756 1.936-.285.301-.559.615-.83.93zm-161.662-2.293l-1.146 3.439c1.013-.311 2.085-.885 2.399-1.979.085-.541.924-1.705-.097-1.461l-1.156.001zm48.074 1.336c-.712-.986-2.226-.98-3.053-.15-.832.61-.946 2.056.096 2.508.911.455 1.963.464 2.956.556.523-.096 1.6.134 1.051-.688-.244-.785-.513-1.59-1.05-2.226zm81.484 2.103h5.733c-.462-1.656-1.841-3.405-3.72-3.312-1.282.052-2.104 1.359-2.056 2.555-.006.253.012.506.043.757zm-192.618-1.719l2.866.573v-1.72l-2.866 1.147zm79.685-1.147v3.439c.952-.289 1.974-1.015 1.806-2.142-.057-.6.164-1.553-.708-1.298l-1.098.001zm83.697 2.293c.975-.239 1.98-.735 2.137-1.844.458-.863-1.211.025-1.518.379-.309.437-.432.972-.619 1.465zm-156.319-1.381c-1.087.411-1.314 1.976-.371 2.663.931.805 1.844-.442 1.868-1.345v-1.657c-.504.087-1.037.087-1.497.339zm27.333-.339l-.573 1.72 2.293-1.146-1.72-.574zm173.792 1.405c-.265-1.156-1.947-.519-1.798.496-.069 1.086-.009 2.177.084 3.259h1.714v-3.755zm147.239-1.405v2.293l2.293-.573-.572-1.72h-1.721zm-264.85 1.68l-6.306 2.906 2.293 1.72-.573 1.721 1.72 1.72c-1.201-.066-2.685-.269-3.538.794-.183.42-1.543 1.509-.66 1.569l5.917 1.076-.573-4.013 3.44-.573v-1.146l-2.867-.573c1.017-.74 2.098-1.852 3.471-1.616 1.46.464 2.933.96 4.481 1.01 1.289.306-.081-1.231-.357-1.756-1.44-1.994-3.951-3.383-6.448-2.839zm48.728 1.76l3.439.573v-2.866c-1.042.14-2.402.099-2.953 1.193-.202.348-.349.724-.486 1.1zm8.026 1.146l5.159 1.72-.573 3.44 3.44.573.573 1.72c.736-1.18 1.696-2.295 1.985-3.686.035-1.211-.581-2.329-.711-3.525.068-.729-.232-.923-.852-.694l-2.716.452v-3.439c-1.943.441-4.19.569-5.598 2.17-.313.373-.548.809-.707 1.269zm84.27-3.439l1.721 2.293v-2.293h-1.721zm80.832 4.586c-.383-1.528-.766-3.057-1.146-4.586-.836.503-1.955 1.212-1.822 2.336.37 1.276 1.846 1.805 2.968 2.25zm-50.311 2.867c.246 1.17.311 2.653 1.439 3.349 1.316.583 2.654-.348 3.811-.901.582-.521-.242-1.627-.105-2.428-.121-.987.57-2.031 1.605-2.104 1.537-.161 3.039.447 4.582.28 2.279-.101 4.836-.709 6.229-2.676.053-.219-.666.03-.938.009-1.309.132-2.619.333-3.93.423l-4.805-.538c-.818-1.437-2.561-2.411-4.209-1.889-2.665.775-4.21 3.826-3.679 6.475zm-52.305-2.294c1.416-.273 2.871-.87 4.316-.389.65.095 1.797.821 1.363-.385-.113-1.231-.896-2.712-2.301-2.705-1.633.084-2.654 1.668-3.213 3.035l-.165.444zm30.383-1.146l-1.721 1.721h2.293c.342-1.185.869-2.465.336-3.681-.189-.712-.395-1.134-.469-.241l-.439 2.201zm79.111-2.867l-.574 1.72 1.721-1.72h-1.147zm-128.986 1.147c-.133.253-.761.47-.438.754l1.584 2.112v-2.866h-1.146zm27.518 1.146l2.293 1.72c.084 1.138-.176 2.625.928 3.364.49.294 1.746 1.121 1.232-.002-.377-1.659-.75-3.57-2.213-4.635-.648-.447-1.473-.555-2.24-.447zm88.283 2.867c1.006-.31 2.141-.821 2.434-1.939.09-.481.834-1.978-.061-1.188-.906.512-1.764 1.219-2.07 2.254-.11.288-.207.58-.303.873zm-138.731 0l1.72 2.293 2.866-4.587-4.586 2.294zm-48.728-1.147l2.866 1.147-2.866-1.147zm-17.198 2.867c1.078-.175 2.459-.328 2.924-1.497.181-.538.978-1.716-.146-1.312-.876.065-2.005.203-2.351 1.162-.226.524-.325 1.09-.427 1.647zm82.55-2.867c-.133.957.167 2.027 1.288 2.14.783.415.076-.269-.11-.569l-1.178-1.571zm45.289.574l.574 2.293 2.865-2.867-3.439.574zm-111.788 2.293l-.573-2.293c-.472.931-.345 1.719.573 2.293zm198.924 0l1.721-.573c.156.265.701.438.502.787l-.502 1.506c.945-.313 1.844-1 1.994-2.045.057-.62.594-1.394-.102-1.794-.23-.382-.555.175-.832.265l-2.781 1.854zm-303.259-1.72v2.293h1.72v-2.293h-1.72zm44.716 2.293l2.293-2.293-2.293 2.293zm87.71-2.293l-.573 1.72 1.72-1.72h-1.147zm65.925 0l1.721 1.72-1.721-1.72zm28.664 1.147l.572 1.72 1.721-2.293-2.293.573zm38.983-.573c.225.977.971 1.688 2.002 1.665.613.166-.303-.341-.477-.521l-1.525-1.144zm68.791.573l-5.158 4.013v-3.439c.289-.227.48-.691.912-.573l4.246-.001zm-345.107.573l1.146 1.72.574-1.72h-1.72zm119.813 1.72v-1.146l-1.147-.573c-.424 1.053.185 1.474 1.147 1.719zm62.486.573l2.294-2.293-2.294 2.293zm16.052 0l2.293-2.293-2.293 2.293zm-202.364-1.72l1.72 1.72-1.72-1.72zm9.746 0l-.573 1.72 1.72-1.72h-1.147zm116.946 0c-.34.326-.823.638-.292 1.088.491.896 1.307 1.979 2.471 1.706.831-.238 1.836-.615 2.406-1.188-.029-.352.056-.75-.04-1.073-.272-.222-.459-.65-.872-.533h-3.673zm101.469 0v2.866h1.146v-2.866h-1.146zm-230.454 2.293l1.72-1.72-1.72 1.72zm41.121 3.864c-.752-1.09-.651-2.788-2.007-3.411-1.514-.846-3.137-1.466-4.717-2.172l-.573 2.866h-1.72c.214.724.363 1.483.617 2.186 1.612 1.734 3.223 3.469 4.834 5.204l1.427.636c.829-.628 1.878-1.018 2.918-.748.797.284 1.35.163 1.264-.783.239-.933-.115-1.896-.912-2.433-.433-.398-.815-.85-1.131-1.345zm312.585-5.01l-2.865.573c.465-.93 1.541-1.638 2.467-.808l.398.235zm-280.901 0l1.72 1.72-1.72-1.72zm145.037 2.866h3.439c-.178-.847-.398-1.975-1.334-2.276-1.183-.088-1.767 1.363-2.105 2.276zm53.315-1.146l2.293-1.72-2.293 1.72zm-267.144 2.293c1.144-.325 2.44-.809 2.89-2.024.157-.509 1.008-1.829-.05-1.21-1.081.309-2.004 1.08-2.385 2.153-.162.356-.308.718-.455 1.081zm235.739-.58c.895.552 2.336.793 2.996-.239.719-1.025-.42-2.236-1.52-1.979-1.016.06-1.85.677-2.75 1.078.372.437.743.887 1.274 1.14zm11.34-.567l2.865-2.293c-.939.215-2.15.343-2.514 1.411-.134.286-.243.584-.351.882zm-47.009 2.293c.905-.517 2.007-1.256 1.904-2.448-.044-.468-.073-2.185-.407-1.046l-1.497 3.494zm53.314-4.013c.357.8.783 1.859 1.754 2.01.99-.09 1.375-1.21 1.686-2.01h-3.44zm-45.299 3.698c.832.393 2.352.139 2.086-1.069-.158-1.18-1.592-1.978-2.631-1.313-.484.278-1.314 1.267-.961 1.65l1.506.732zm142.754-3.698v2.998c-1.047-.393-2.133-.017-2.582 1.024-.906 1.226-1.764 2.716-3.285 3.235-1.158.333-2.158-.628-2.73-1.525 2.865-1.91 5.732-3.82 8.597-5.732zm-376.636 1.147l-1.146 4.586-2.867-2.866h2.867l-.573-1.72h1.719zm93.442 3.439l3.44 1.72 1.72-3.439c-1.126-.189-2.328-.782-3.449-.298-.788.44-1.242 1.279-1.711 2.017zm207.524-2.866v2.293h1.719v-2.293h-1.719zm36.69-.573c-.186.099-.637.844-.574.348-.126-.535.234-.299.574-.348zm-308.42 1.72l.574 1.72 1.72-2.293-2.294.573zm51.864.337c-.975.954-1.777 2.256-1.794 3.651-.023 1.14 1.337 1.711 2.267 1.212 1.615-.713 2.121-2.732 1.793-4.339-.153-.653.009-1.834-.943-1.236-.495.121-.946.374-1.323.712zm10.049-.911l-1.146 3.439c1.007-.309 2.142-.821 2.434-1.939.071-.549.89-1.746-.132-1.5h-1.156zm178.86 0c-.807 1.794-2.256 3.454-2.121 5.535.119.766.064 2.059.566 2.449l2.129-.532-.574-1.72c1.166-.537 2.594-1.36 2.639-2.809-.106-1.433-1.5-2.307-2.639-2.923zm-24.078 2.867l-.572-2.293.572 2.293zm39.133 1.851c-.328-1.268-1.818-1.496-2.932-1.428-.988.105-2.117.043-2.801-.787-.662-.898-1.631-1.548-2.74-1.729-.598-.067-1.689-.556-1.422.421v5.111l-2.867-.573c.203 2.13.4 4.584 2.131 6.085 1.186 1.015 2.703 1.505 4.176 1.941-.383-.956-.766-1.911-1.146-2.867 2.271-.804 4.414-2.027 6.248-3.591.685-.663 1.589-1.527 1.353-2.583zm10.17 1.015c1.434-.424 3.064-1.19 3.412-2.798.123-.664.264-1.952-.092-2.291-1.293.738-2.633 1.714-2.969 3.259-.168.599-.263 1.215-.351 1.83zm67.232-3.342l3.852 1.622-.572 2.866 4.586 1.72-1.721 2.293c2.025.187 4.365.267 5.848 1.861 1.117 1.11 1.256 3.103.062 4.218-.996.961-2.697 1.531-3.939.705-1.035-.714-1.51-2.317-2.943-2.359-1.141-.03-2.375.723-2.471 1.94-.215.652.248 1.44-.215 1.99l-.928 1.391c1.453.006 2.883.815 3.477 2.172.482.951.766 1.983 1.109 2.987-1.527 1.338-3.057 2.676-4.586 4.013l.574-6.879c-1.168-.194-2.705-.526-2.998-1.882-.24-1.078-.229-2.194-.441-3.277l-2.867 1.72c.418-1.891.779-4.109-.402-5.808-.705-.972-1.887-1.456-3.037-1.646.635-1.278 1.473-2.593 2.889-3.087.953-.279 2.771-.788 2.059-2.143-.902-1.651-2.566-2.765-4.256-3.503-.457-.368-1.752-.225-1.727-.625.748-1.341 2.205-2.417 3.803-2.179 1.744.209 3.282 1.154 4.844 1.89zm-316.605-.098l.573 1.72 2.293-.573v-1.146l-2.866-.001zm5.733 1.72l-.573-2.293c-.729.771-.596 1.832.455 2.21l.118.083zm50.447-1.72v1.146c.981.169 2.147.314 2.841-.581.603-.436.672-.667-.079-.565h-2.762zm-78.148 3.4c.929-.507 1.415-2.038.416-2.723-1.011-.502-2.103.246-3.062.559-.632.461-2.1.595-2.258 1.271l.502 1.506c1.465-.111 3.049.053 4.402-.613zm183.057-2.826v1.72c1.245.03 2.801.407 3.739-.66.209-.344 1.322-1.779.455-1.584l-4.194.524zm40.127-.574c.244.974.795 1.913 1.859 2.12.83.471-.049-1.354-.521-1.589-.418-.239-.886-.366-1.338-.531zm-138.73 1.147l1.72 1.72c.369-.406.845-.769 1.146-1.203.1-.441-.061-.622-.508-.517h-2.358zm229.881-1.147c-.184.099-.637.845-.572.348-.125-.534.234-.299.572-.348zm-271.156 2.867l1.72-1.72-1.72 1.72zm-.573 3.439v1.146h3.439l-1.146-2.293 2.866.573c-.337-.888-.628-2.085-1.647-2.402-1.067-.025-1.714 1.019-2.378 1.71-.371.429-.734.865-1.134 1.266zm37.262-1.146c.941-.298 1.947-.768 2.134-1.854.439-.846-1.32.114-1.584.55-.249.403-.383.863-.55 1.304zm-4.013 0l1.72-1.72-1.72 1.72zm148.54-1.032c-1.086-.2-2.117.933-1.568 1.967.443 1.125 1.926 1.234 2.834.632 1.137-.648 1.832-1.86 2.064-3.124.059-.312-.561.304-.799.401l-.875.582c-.544-.176-1.074-.444-1.656-.458zm89.368 1.605l-1.721-1.72 1.721 1.72zm-257.972-.573l1.146 3.439c.566-.659 1.535-1.704.732-2.541-.527-.467-1.226-.672-1.878-.898zm198.35-.574l.574 2.293-2.293-.573c.027-.389-.057-.825.039-1.187.273-.221.459-.65.873-.533h.807zm-220.708 1.147v2.866l4.013-.573c-.302-.977-.901-2.108-2.052-2.189-.649-.093-1.307-.074-1.961-.104zm28.091 0c-.176 1.204-.483 2.682.501 3.637.382.323 1.441 1.49 1.218.385v-4.021l-1.719-.001zm16.573 3.892c-1.923.974-4.168 1.411-6.283.86-.966-.217-1.905-.535-2.838-.86-.225.356-.821.666-.376 1.104.67 1.78 2.315 2.984 4.095 3.502 2.131.639 4.591.895 6.632-.162 1.531-.812 2.024-2.602 3.242-3.735 1.082-1.101 2.335-2.013 3.605-2.881-.676-.984-1.896-1.889-3.142-1.437-1.951.724-3.143 2.62-4.935 3.609zm110.693-3.892l-.574 1.72 1.721-1.72h-1.147zm-194.912 2.293l2.293-1.72-2.293 1.72zm72.805.573c.975-.239 1.98-.735 2.137-1.844.458-.862-1.211.025-1.518.379-.308.437-.432.972-.619 1.465zm50.448-2.293l-.573 2.866-1.72-1.72h-1.146v3.44c-.936.456-2.061.969-2.429 2.022-.022 1.076 1.467.87 2.182.707.779-.168 1.587-.788 1.827.341.699 1.034 1.469 2.213 2.721 2.602.905.15 1.553-.894 1.471-1.704v-7.981l-2.333-.573zm110.067 0l-.572 1.72 1.719-1.72h-1.147zm9.746 0c-.797 1.476-1.344 3.127-2.469 4.396-1.004.995-2.506.493-3.688.188-.572-.072-1.518-.622-1.854-.44.191 1.271.396 2.847 1.646 3.521 1.395.559 2.914.046 4.361.178 1.188.033 2.352.297 3.531.368.555.15 1.771-.57 1.883-.068l-.547 4.471-1.719-.573-.574 4.586c-1.252.097-2.723.057-3.686.992-.76 1.018-.135 2.331.236 3.377.139.573 1.047 1.611-.037 1.363h-1.672v1.72l2.865-.573c.648 1.46 1.322 3.239 2.984 3.776 1.652.419 3.393.345 5.041.811.227-.29.691-.48.574-.912-.07-.307.174-.782-.188-.934l-1.533-1.021 5.732-1.147c-.229-1.188-.203-2.554-1.037-3.514-.949-.823-2.213-.151-3.281-.03-2.365.252-4.783-1.028-5.891-3.139-.232-.37.512-.502.736-.76l.875-.583c1.477.822 2.816 2.065 4.543 2.308 1.219.147 1.754-1.188 1.809-2.182.09-.804.037-1.612.051-2.419l-3.537 1.146.574-3.439 6.879 1.146c-.271-.951-.77-2.056-1.906-2.117-.701-.016-1.148-.185-.816-.896l.43-2.146c-1.883-.95-3.963-1.907-5.049-3.828-.541-.725-.838-1.903-1.357-2.428l-2.193 1.096-.572-2.293-1.144-.001zm32.723 2.878c.34-1.003-.273-2.548-1.547-2.113-1.158.211-1.975 1.733-1.068 2.658.508.613 1.322.788 1.994 1.164l.619-1.709h.002zm32.629-3.451c-.555.778-1.387 1.586-2.434 1.361-.531-.067-1.383-.217-.471-.394l2.905-.967zm47.582 1.719l-1.721-1.72 1.721 1.72zm-197.205-.573l1.72 1.72-1.72-1.72zm-51.021.573l1.72 1.72-1.72-1.72zm158.222 1.72v-1.146l-1.146-.573c-.424 1.054.185 1.475 1.146 1.719zm59.047 1.147l-3.439-2.293c.059.981.135 2.344 1.256 2.695.895.44 2.51-.41 2.443 1.079.275 1.027.17 2.498-1.02 2.883-1.426.439-2.928-.389-3.73-1.564-1.123-1.413-2.025-2.981-2.963-4.52 1.688-.51 3.314-1.502 5.127-1.396 1.535.135 2.123 1.819 2.326 3.116zm-223.001-2.293c.342.935.788 2.157 1.896 2.342 1.019-.007 1.638-.992 2.116-1.769l-4.012-.573zm25.797 0l-.573 4.014c.898-.303 2.097-.81 2.084-1.935-.166-.628.096-2.12-.76-2.079h-.751zm8.599 4.587c.939-.331 2.243-.933 2.104-2.126-.246-1.108-1.235-1.828-2.104-2.461v4.587zm17.771-4.014c.028.39-.056.825.04 1.187.335.482.751.653 1.301.321 1.115-.132 1.804-1.074 2.099-2.081l-3.44.573zm-120.959 2.294c.957.204 2.311.288 2.574-.942.275-.519.403-.968-.345-.742-1.038-.123-1.74.679-2.139 1.533l-.09.151zm28.09-2.294v1.72h1.72v-1.72h-1.72zm223.574 2.294l1.146-2.294c.645.827.445 2.019-.736 2.143l-.41.151zm19.492-1.148l-2.293-1.146 2.293 1.146zm-296.38 2.294h3.439c-.322-.809-.934-1.932-1.967-1.769-.795.217-1.195 1.067-1.472 1.769zm169.114-1.72v1.147h4.013v-1.147h-4.013zm30.956 1.147h4.013v-1.721c-1.148.051-2.544-.127-3.363.878-.242.26-.451.548-.65.843zm105.482-2.294c-.184.1-.637.845-.574.348-.125-.533.234-.298.574-.348zm-156.503 1.147l1.72 1.721-1.72-1.721zm171.981 1.72l-1.146-2.294 1.146 2.294zm-326.19-1.146l1.146 1.72.573-1.72h-1.719zm184.593 0l-.573 2.293 1.72.573v-2.867l-1.147.001zm-26.944 2.866c.929.178 2.356.269 2.578-.948.129-.544.569-1.797-.196-.957l-2.382 1.905zm38.983-2.293l-.574 2.293h3.439l-2.865-2.293zm-132.425.573l.573 2.293-2.293-1.146c-1.169.618-2.559.609-3.715 1.238-1.18.885-1.264 2.471-1.242 3.821.053 1.012-.403 2.099-1.395 2.487-.659.434-2.258.169-1.34 1.264.658 1.438 2.485 2.468 3.99 1.672 1.13-.568.579-1.992.1-2.822-1.074-1.106.919-1.255 1.444-2.038.728-.721.831-1.801 1.011-2.756l1.72.573v1.146c-1.119.769-2.061 2.198-1.474 3.583.482 1.206 1.546 2.056 2.62 2.723-.595 1.611-1.613 3.259-1.207 5.04.202 1.167 1.403 2.279 2.627 1.804 1.566-.528 2.346-2.234 2.317-3.797.019-1.439-.326-2.867-.871-4.193 2.156-.174 4.4.916 6.478-.027 1.608-.787 2.529-2.433 3.268-3.985h-2.293l-.573-4.586c-1.998-.121-4.332-.221-5.886 1.275-1.081 1.049-1.65 2.489-2.14 3.884h-1.146l-.573-2.293c.986-.58 1.626-1.705 1.425-2.858-.229-.686.046-1.997-.505-2.301l-.92-.001zm177.712-.573c-.184.099-.635.844-.572.347-.125-.533.234-.298.572-.347zm-204.083 1.147l-.573 1.72h3.44l-2.867-1.72zm14.905 0v1.146h3.439v-1.146h-3.439zm102.042 1.719v-1.146l-1.146-.573c-.425 1.053.184 1.474 1.146 1.719zm177.454-.837c.883.853 1.125 2.356.256 3.311-.801.964-2.352 1.746-3.527.99-.883-.562-.779-1.9.004-2.505.521-.444 1.207-.634 1.807-.959l-.574-2.293c.708.439 1.472.827 2.034 1.456zm-238.794-.309v1.72h1.72v-1.72h-1.72zm41.275 0v2.293h1.72v-2.293h-1.72zm44.715 0l-.573 1.72 1.72-1.72h-1.147zm40.199 3.961c.947 1.262 2.387 2.101 3.943 2.345l-1.721-4.586 2.867 1.146c-.176-1.578-1.604-2.909-3.215-2.815-1.236-.024-2.676.871-2.576 2.24.036.617.337 1.185.702 1.67zm36.619-2.241v-1.146l-1.146-.573c-.424 1.053.185 1.473 1.146 1.719zm.574-.574l2.293.573c-.385-.937-1.344-1.462-2.168-.646l-.125.073zm-64.527.098c-.548-.406-1.208-.04-1.479.493l-3.934 5.142c.339.376.684.828 1.177.29 1.706-.991 3.413-2.16 4.518-3.83.454-.655.495-1.659-.282-2.095zm36.437 2.769c.389-.028.824.056 1.186-.04.16-.255.734-.458.389-.775l-1.574-2.624-.001 3.439zm8.598-.574l2.293-1.72c-.936.082-1.98.37-2.178 1.447l-.057.132-.058.141zm48.154 1.72l-4.586 1.146.574-5.159c1.385.335 2.855 1.011 3.426 2.416.246.513.424 1.054.586 1.597zm-284.913 1.72c.896-.51 2.07-1.24 1.882-2.439-.14-.584-.465-2.066-.842-1.975-.678 1.031-1.379 2.195-1.17 3.486.027.312.075.62.13.928zm29.81-2.866l1.72-1.72-1.72 1.72zm47.581-.574l-.573 1.72 1.72-1.72h-1.147zm33.823 4.586v-4.586c-.88.529-2.072 1.229-1.973 2.409.208 1.009 1.178 1.634 1.973 2.177zm98.028-4.586l.573 3.439h1.146v-3.439h-1.719zm-160.515.574l-1.146 2.293h2.293v-2.293h-1.147zm287.208 9.745l-4.014 1.72c-.334-1.956-.602-4.119.447-5.916 1.045-1.857 1.277-4.027 1.273-6.122 1.635.647 3.334 1.862 3.545 3.745.259 2.272-.956 4.367-1.251 6.573zm-219.562-7.452h1.72l-.573-1.72-1.147 1.72zm107.2-1.147l2.867 2.293-1.146-2.866-1.721.573zm29.811.573c1.445.752 2.951 1.988 4.691 1.522.629-.134 1.434-.399.445-.719-1.229-.73-2.607-1.822-4.125-1.293-.359.115-.695.289-1.011.49zm-210.962 0c.75.697 1.81 1.479 2.879.998.458-.203 1.681-.83 1.537-.998h-4.416zm48.154 2.867l2.293-2.293c-.993-.104-2.354.172-2.232 1.459-.029.277-.045.555-.061.834zm54.46-1.147l1.72-1.72-1.72 1.72zm104.909.573c1.02-.16 2.215-.319 2.785-1.308.287-.422.986-1.322.186-.672l-2.971 1.98zm-33.823-.573l1.719.573v-1.72l-1.719 1.147zm-4.013.573v1.146c1.012.178 2.295.448 3.055-.462.285-.399 1.498-1.527.398-1.178l-3.453.494zm18.918-.573l.574 1.72 1.719-2.293-2.293.573zm5.732-.573c-.156.265-.701.438-.502.787l.502 1.506 1.721-.573v-1.146l-1.721-.574zm22.932 0l1.719 2.293v-2.293h-1.719zm-226.442 3.439l2.293-2.866c-.907.177-2.362.263-2.38 1.497-.029.458.03.916.087 1.369zm79.111-2.866c.226.978.971 1.688 2.003 1.666.613.165-.303-.341-.478-.522l-1.525-1.144zm68.793 3.439c1.029.19 2.397.556 3.157-.412.291-.467 1.056-1.672.641-1.855-1.09.108-2.341.254-3.029 1.226-.28.331-.526.686-.769 1.041zm-141.024-1.146l.573 2.293h1.146v-2.866l-1.719.573zm33.822 1.72c.95.131 2.269.215 2.569-.966.367-.659.31-.868-.284-.405l-2.285 1.371zm17.771-1.72l-.573 1.72h2.867v-1.146l-2.294-.574zm102.043 0c.882 1.502 2.781 2.701 4.537 2.041.881-.344 1.473-1.172 1.768-2.041l-3.439 1.146-2.866-1.146zm-178.975 2.075c1.479.714 2.886 1.598 4.476 2.052 1.521.485 3.196 1.122 3.962 2.64.24.782 1.358 2.193.388 2.655-.888.524-2.086 1.109-2.184 2.268.064 1.264 1.547 1.941 2.66 1.56 1.009-.249 1.922-.762 2.851-1.21.319 1.344.477 2.782-.048 4.098-.316.755-.277 2.11-1.412 1.448-2.301-.489-4.67-1.305-7.037-.72-1.014.212-1.999.545-2.968.906l-.573-4.586c1.449-.983 3.227-1.993 3.582-3.863.237-1.409.462-2.831 1.005-4.163l-5.16 2.866.573-2.293c-1.424-.721-3.024-1.181-4.252-2.234-.908-.916-.83-2.306-.907-3.498.781.81 1.505 1.911 2.68 2.143.792-.046 1.568-.353 2.364-.069zm93.815 2.597c.788-.831 1.431-2.273.624-3.295-.802-.889-2.091-.762-3.175-.804l-1.72 4.586c1.43.395 3.072.605 4.271-.487zm-28.348-3.526l-.573 2.866c1.288.731 2.683 1.783 4.25 1.341.635-.289 1.81-.347 2.056-.993-.067-.299.136-.781-.105-.963l-5.628-2.251zm45.862 0v1.72h1.72v-1.72h-1.72zm-48.728.574c-.226 1.121-.647 2.453.159 3.451.336.366 1.125 1.703 1.058.575l.503-4.026h-1.72zm44.141 2.866c.897.188 2.514.287 2.389-1.066.013-.655.014-1.622-.575-.747l-1.814 1.813zm-69.365 1.72l4.013-1.146c-.348-.984-1.068-2.27-2.286-2.127-1.214.363-1.529 1.803-1.688 2.901l-.021.184-.018.188zm152.489-1.72l1.72-1.72-1.72 1.72zm-134.718-1.147c.446 1.661 1.57 3.114 3.132 3.863.513.186 1.868 1.258 1.267.071-.392-1.455-1.173-2.986-2.703-3.49-.544-.213-1.119-.344-1.696-.444zm141.024.574v1.146h2.867l-.574-1.72-2.293.574zm17.199 1.719l-1.148-2.293c-.562.966-.141 2.071 1.012 2.238l.136.055zm65.926-1.719l-1.146 2.293c1.068.332 2.346 1.02 2.354 2.301-.041 1.624-.746 3.18-.592 4.823.053 1.487.611 2.951.299 4.447-.189.618.018 2.047-.943 1.396-1.135-.454-2.393-.468-3.541-.063-.629.3-1.178.39-1.406-.341l-2.477-3.963 2.865.573v-6.88c-1.244.751-2.723 1.524-3.1 3.06-.252.806-.115 1.833-1.252 1.691-1.289.237-1.82 1.539-2.424 2.535-.285.226-.332-1.116-.436-1.52-.166-1.234.461-2.367.906-3.474l-1.721 1.147c-1.309-.45-2.527-1.309-3.084-2.618-.166-.605-1.01-1.619-.742-1.993 2.102-.271 4.289-.881 6.369-.157.666.021 1.725.952 2.098.536l.52-2.074 3.439.573-.574 2.293h1.721c-.139-1.271-.23-2.865.949-3.694.572-.423 1.248-.671 1.918-.891zm-75.672 2.293c.025.393-.049.819.035 1.191l2.258 2.822c.389-.029.824.056 1.186-.04.395-.316.697-.659.395-1.181-.262-1.056-.426-2.501-1.639-2.877-.733-.198-1.506-.058-2.235.085zm-240.199 1.146c.628.924 1.583 1.759 2.768 1.713.585-.17 2.028.479 1.818-.501.003-.348.112-.788-.392-.688l-4.194-.524zm108.347-.573l-.573 2.293 2.293-.573c-.028-.389.056-.825-.04-1.187-.272-.221-.459-.649-.872-.533h-.808zm-30.956.573c.332.861.668 2.221 1.798 2.221.677-.153 1.649-1.26 1.475-1.675l-3.273-.546zm212.681 3.441c.908-.178 2.363-.263 2.381-1.497.008-.562.062-1.869-.475-.885l-1.906 2.382zm-236.758-1.721l-.573 1.721 1.72.573c-.387 1.051-.867 2.361-2.109 2.611-.492-.033-2.002.669-1.837-.078l.506-2.533-1.72-.573 1.146-2.867 2.867 1.146zm120.959 0l.573 1.721 1.72-2.294-2.293.573zm83.698-.573l.572 2.294c.389-.029.826.056 1.188-.04.221-.273.65-.46.533-.872-.084-.28.201-.848-.219-.863l-2.074-.519zm-244.213.573l-.573 1.721 1.72-1.721h-1.147zm94.016 1.721v1.146c.929.178 2.356.269 2.577-.948.121-.56.615-1.719-.288-1.114l-2.289.916zm215.548.573l-.572-2.294.572 2.294zm-224.72 0l2.293-1.146-2.293 1.146zm107.201 1.146l-.573-2.293.573 2.293zm-184.019-2.293c-.184.099-.636.844-.573.347-.126-.533.234-.298.573-.347zm223.001.574l-4.014 8.025c.289.227.48.69.912.573.578.076 1.076-.02 1.322-.638.537-.766 1.342-1.58 2.369-1.33.645.154 1.262.404 1.648-.271.189-.105.631-.815.627-.458v2.124l8.027-2.293c-1.092-2.061-2.592-4.206-4.977-4.819-1.931-.518-3.951-.554-5.914-.913zm10.893 0c.006.924.055 2.058 1.059 2.466.482.405.818.464.744-.277.365-1.145-.615-1.919-1.627-2.126l-.176-.063zm-120.961 2.866l1.72-1.72-1.72 1.72zm80.258-1.72l.574 2.293 1.719-.573-.572-1.72h-1.721zm47.582 2.866c.904-.461 1.613-1.343 1.209-2.402-.006-.905-.24.052-.398.375l-.811 2.027zm-41.276-.573v-1.146l-1.146-.573c-.424 1.053.184 1.474 1.146 1.719zm-85.417 1.147v1.146c1.307.222 2.91.363 3.862-.759.454-.581 1.197-1.565 1.179-2.124-1.301-.251-2.649.09-3.699.887-.444.289-.886.581-1.342.85zm-141.597-1.72l1.72 1.72-1.72-1.72zm114.08 1.72c1.011.038 2.166-.053 2.785-.976.432-.461.895-.951.099-.467l-2.884 1.443zm96.883 0l2.866.573-1.146-2.293-1.72 1.72zm6.305-1.72c.6 1.283 1.393 2.699 2.879 3.066.605.104 2.205.832 1.455-.307-.43-1.254-1.506-2.23-2.817-2.471-.499-.126-1.008-.21-1.517-.288zm-51.594 4.586l3.439-2.293v-1.146c-1.074-.2-2.524-.471-3.253.566-.497.866-.324 1.932-.186 2.873zm15.478-2.293l5.16.573c-.437-1.177-1.448-2.503-2.859-2.251-.971.182-1.723.919-2.301 1.678zm81.405-1.147l1.146 2.866c.727-.463 1.764-1.084 1.631-2.077-.416-.92-1.643-.871-2.504-.819l-.135.014-.138.016zm56.752 2.293c.977-.24 1.98-.736 2.139-1.845.471-.838-1.156-.3-1.586-.126-.582.458-.469 1.316-.553 1.971zm-163.38-1.719l-.573 1.72 4.586 1.146-.573 4.013 1.146-2.293 2.293-1.146-.573-1.72 2.293-.573v-1.146c-2.867-.001-5.733-.001-8.599-.001zm151.343-.574l1.146 2.866c-.787.775-1.592 1.78-1.373 2.964-.078.635.67 1.738-.311 1.801l-1.184.395c-.34-1.024-.762-2.379-1.996-2.564-.793-.2-2.037.308-2.539.171l2.242-4.485 2.293.573.574-1.72 1.148-.001zm-89.43 2.866v-1.146l-1.147-.573c-.424 1.054.185 1.474 1.147 1.719zm67.588 1.708c-.01 1.048.473 2.488 1.738 2.476 1.26-.002 2.098-1.514 1.498-2.6-.566-1.192-1.801-1.901-3.068-2.11-.346-.059-.09.676-.168.97v1.264zm-229.25-1.708l.573 1.72-2.293.573.573-2.293h1.147zm153.063 1.147c.674 1.188 1.933 2.206 3.377 1.975 1.016-.11 1.973-.49 2.929-.828v-1.146l-6.306-.001zm-5.16 0l-1.146 3.439 2.866.573.573 2.866c1.277-.143 2.655.35 3.853-.258.399-.339 1.652-1.215 1.028-1.654l-7.174-4.966zm33.25 5.159h1.146l1.721-4.013c-.993-.131-2.293-.374-3.013.512-.6 1.064-.1 2.402.146 3.501zm73.39-4.236c.902-.936 2.381-.604 3.479-.252 1.686.507 3.254 2.054 3.07 3.929-.074.933-.658 2.533-1.381 2.716l-4.033-5.596-1.721 2.866c.041-1.223-.136-2.596.586-3.663zm-249.384 2.516l-3.439 1.146v-2.866l2.293-.573 1.146 2.293zm115.228-1.146c-.227.289-.691.48-.573.912.044.364-.149.826.239 1.047.205.34.534.38.898.334.359.035.7.026.901-.319.361-.195.236-.593.254-.932.096-.384-.111-.643-.399-.868-.228-.329-.683-.111-1.021-.174h-.299zm87.709 2.293l-1.719-2.293 1.719 2.293zm-81.404 2.293l-.573-2.293c-.729.771-.595 1.832.456 2.21l.117.083zm-2.866.573l2.866 4.013h-5.159l-.573-4.586 2.866.573zm-159.369.573l1.146 1.72.573-1.72h-1.719zm12.039 1.147l-4.013.573c.541-.738 1.075-1.871 2.144-1.81.752.152 1.32.745 1.869 1.237zm178.86 0c.386.882.795 2.093 1.876 2.261.983-.049 1.595-.973 2.137-1.688l-4.013-.573zm77.39-.573c1.076 1.677 2.486 3.259 4.426 3.918 1.402.568 1.625 2.23 1.881 3.535l-2.293 2.293 1.719.573c-.25 1.179-.4 2.532-1.428 3.327-.439.414-1.012.99-.986.076l-1.025-5.123c-2.639.435-5.43.916-8.025 0l-2.23 2.866c.018-.983-.033-1.975.025-2.953.299-1.292.596-2.583.893-3.875l-2.699-2.918 9.742-1.719zm-261.983 1.719c-.657 1.174-1.157 2.725-2.599 3.122-.527-.021-1.972.743-1.988-.021v-1.382c1.53-.572 3.059-1.145 4.587-1.719zm232.747 6.307v-3.439c.496.826 1.027 1.883.379 2.787-.117.222-.246.438-.379.652zm-32.676-1.147l2.293 3.439.573-4.586-2.866 1.147zm3.44 0v1.146h3.439c-.545-.821-1.381-1.747-2.477-1.354-.322.062-.642.137-.962.208zm21.783 5.16c-.764-1.338-1.527-2.676-2.293-4.013 1.045.189 2.463.501 2.699 1.727.127.781-.14 1.561-.406 2.286zm20.965 2.768c1.299 1.954 3.307 3.331 5.498 4.105.422.372 1.871.211 1.504.953-.342 1.021-.682 2.043-1.021 3.064l-2.867-.573 5.16 5.16-4.586 1.146c-.486-1.221-1.029-2.43-1.48-3.657-.012-1.282.023-2.571-.016-3.85l-1.371-4.532h-1.721l-1.719 2.293c-.674-1.498-1.592-3.09-3.258-3.62-.471-.308-1.846-.166-.988-.941.566-.931 1.625-1.585 2.74-1.387 1.129.366 1.582-.871 1.5-1.771-.02-.571-.072-1.199.514-.48 1.292 1.026 1.093 2.876 2.111 4.09zm-8.926-2.768c.1.855.312 2.238-.809 2.486-.613-.054-2.109.262-2.057-.589.062-.302-.188-.815.262-.855l2.604-1.042zm-25.223 2.866l1.719 1.72-1.719-1.72zm1.719 2.293v1.72l1.721-1.146-1.721-.574zm23.504 0c-.184.1-.635.845-.572.348-.125-.534.234-.298.572-.348z"/></svg>